<?xml version="1.0" encoding="utf-8"?>
<!-- Generator: Adobe Illustrator 22.1.0, SVG Export Plug-In . SVG Version: 6.00 Build 0)  -->
<svg version="1.1" id="Layer_1" xmlns="http://www.w3.org/2000/svg" xmlns:xlink="http://www.w3.org/1999/xlink" x="0px" y="0px"
	 viewBox="0 0 688 694.8" style="enable-background:new 0 0 688 694.8;" xml:space="preserve">
<style type="text/css">
	.st0{fill:#262836;}
	.st1{fill:#0F1118;}
	.st2{fill:#FAF6FC;}
	.st3{fill:#DCD8DE;}
</style>
<g id="Layer_2_1_">
</g>
<g id="Layer_1_1_">
	<g>
		<path class="st0" d="M0,347.4c0,189.1,151,342.9,339,347.4V171.9l-41,47h-84l-30-29v190l0.3,0.5l0,0l0,0h154.2l0,0v42l0,0
			c0,0-22.1-21-63.4-21c-40.6,0-66.5,20.3-67.4,21l0.3,0.5l-9,153C114.5,525.4,58,433,58,327.4C58,170.4,183,42.5,339,38V0
			C151,4.5,0,158.3,0,347.4z"/>
		<path class="st1" d="M338.5,380.4H184.3l0,0l23.4,42c0.9-0.7,26.8-21,67.4-21c41.3,0,63.4,21,63.4,21V380.4L338.5,380.4z"/>
		<path class="st2" d="M349,0v38c156,4.5,281,132.4,281,289.4c0,105.6-56.5,198-141,248.5l-9-153l0.3-0.5c-0.9-0.7-26.8-21-67.4-21
			c-41.3,0-63.4,21-63.4,21l0,0v-42l0,0h154.2l0,0l0,0l0.3-0.5v-190l-30,29h-84l-41-47v522.9c188-4.5,339-158.3,339-347.4
			S537,4.5,349,0z"/>
		<path class="st3" d="M349.5,380.4L349.5,380.4v42c0,0,22.1-21,63.4-21c40.6,0,66.5,20.3,67.4,21l23.4-42l0,0H349.5z"/>
	</g>
	<g>
		<path class="st0" d="M0,347.4c0,189.1,151,342.9,339,347.4V171.9l-41,47h-84l-30-29v190l0.3,0.5l0,0l0,0h154.2l0,0v42l0,0
			c0,0-22.1-21-63.4-21c-40.6,0-66.5,20.3-67.4,21l0.3,0.5l-9,153C114.5,525.4,58,433,58,327.4C58,170.4,183,42.5,339,38V0
			C151,4.5,0,158.3,0,347.4z"/>
		<path class="st1" d="M338.5,380.4H184.3l0,0l23.4,42c0.9-0.7,26.8-21,67.4-21c41.3,0,63.4,21,63.4,21V380.4L338.5,380.4z"/>
		<path class="st2" d="M349,0v38c156,4.5,281,132.4,281,289.4c0,105.6-56.5,198-141,248.5l-9-153l0.3-0.5c-0.9-0.7-26.8-21-67.4-21
			c-41.3,0-63.4,21-63.4,21l0,0v-42l0,0h154.2l0,0l0,0l0.3-0.5v-190l-30,29h-84l-41-47v522.9c188-4.5,339-158.3,339-347.4
			S537,4.5,349,0z"/>
		<path class="st3" d="M349.5,380.4L349.5,380.4v42c0,0,22.1-21,63.4-21c40.6,0,66.5,20.3,67.4,21l23.4-42l0,0H349.5z"/>
	</g>
</g>
</svg>
