<?xml version="1.0" encoding="utf-8"?>
<!-- Generator: Adobe Illustrator 22.1.0, SVG Export Plug-In . SVG Version: 6.00 Build 0)  -->
<svg version="1.1" id="Layer_1" xmlns="http://www.w3.org/2000/svg" xmlns:xlink="http://www.w3.org/1999/xlink" x="0px" y="0px"
	 viewBox="0 0 688 694.8" style="enable-background:new 0 0 688 694.8;" xml:space="preserve">
<style type="text/css">
	.st0{enable-background:new    ;}
	.st1{fill:#242634;}
	.st2{fill:#0C0D13;}
	.st3{fill:#0D0F15;}
	.st4{fill:#1D1F2A;}
	.st5{clip-path:url(#SVGID_2_);fill:#4B4C58;}
	.st6{fill:#1E202B;}
	.st7{fill:#21222F;}
	.st8{fill:#14151D;}
	.st9{fill:#08090D;}
	.st10{fill:#262836;}
	.st11{fill:#C1BEC2;}
	.st12{fill:#828083;}
	.st13{fill:#C7C4C9;}
	.st14{fill:#FBF8FD;}
	.st15{fill:#767477;}
	.st16{fill:#767377;}
	.st17{fill:#BEBABF;}
	.st18{fill:#F6F3F8;}
	.st19{fill:#D7D4D9;}
	.st20{fill:#7F7D80;}
	.st21{fill:#868487;}
	.st22{fill:#B4B1B5;}
	.st23{clip-path:url(#SVGID_4_);fill:#4B4C58;}
</style>
<g id="Layer_2_1_">
</g>
<g>
	<g>
		<g class="st0">
			<g>
				<polygon class="st1" points="222.8,315.5 244,303.2 244.2,303.8 223,316 				"/>
			</g>
			<g>
				<polygon class="st2" points="329.6,377.5 350.7,365.3 350.6,398.6 329.5,410.9 				"/>
			</g>
			<g>
				<polygon class="st3" points="223,316 244.2,303.8 350.7,365.3 329.6,377.5 				"/>
			</g>
			<g>
				<polygon class="st4" points="223.3,164.7 244.4,152.4 244,303.2 222.8,315.5 				"/>
			</g>
			<g class="st0">
				<defs>
					<path id="SVGID_1_" class="st0" d="M194.2,95.3L215.4,83c-35.9,20.9-58.2,65.2-58.4,128.3c-0.2,83.8,38.6,179.7,96.9,253.5
						l-21.1,12.3c-58.3-73.8-97.1-169.7-96.9-253.5C136.1,160.5,158.3,116.2,194.2,95.3z"/>
				</defs>
				<clipPath id="SVGID_2_">
					<use xlink:href="#SVGID_1_"  style="overflow:visible;"/>
				</clipPath>
				<path class="st5" d="M253.6,464.4c-2.8-3.6-5.6-7.2-8.3-10.9c-4.2-5.6-8.2-11.4-12.1-17.2c-5.8-8.6-11.3-17.4-16.6-26.4
					c-3.4-5.7-6.6-11.6-9.7-17.4c-2-3.8-4-7.7-5.9-11.5c-1.7-3.3-3.3-6.7-4.9-10c-1.5-3.2-3-6.4-4.4-9.7c-1.4-3.2-2.8-6.3-4.1-9.5
					c-1.3-3.2-2.6-6.4-3.9-9.6c-1.3-3.3-2.5-6.6-3.7-9.9c-1.2-3.4-2.4-6.8-3.5-10.1c-1.2-3.5-2.3-6.9-3.3-10.4
					c-1.1-3.5-2.1-7-3.1-10.6c-1-3.5-1.9-7.1-2.8-10.6c-0.9-3.5-1.7-7-2.5-10.5c-0.8-3.5-1.5-6.9-2.1-10.4
					c-0.6-3.4-1.2-6.8-1.8-10.2c-0.5-3.3-1-6.7-1.4-10c-0.4-3.3-0.8-6.5-1.1-9.8c-0.3-3.3-0.6-6.5-0.8-9.7c-0.2-3.2-0.4-6.5-0.5-9.7
					c-0.1-3-0.1-6-0.1-9c0-0.2,0-0.4,0-0.6c0-3.3,0.1-6.5,0.2-9.7c0.1-3.2,0.3-6.4,0.6-9.4c0.3-3.3,0.6-6.5,1-9.6
					c0.4-3.3,0.9-6.5,1.4-9.6c0.6-3.3,1.2-6.6,2-9.7c0.8-3.5,1.7-6.9,2.7-10.2c1.1-3.6,2.2-7.2,3.5-10.6c1.5-4,3.1-7.8,4.8-11.5
					c2.3-4.8,4.8-9.4,7.6-13.7c9.2-14.5,20.9-25.8,34.6-33.7l-21.1,12.3c-13.6,7.9-25.3,19.3-34.6,33.7c-2.7,4.3-5.3,8.9-7.6,13.7
					c-1.7,3.7-3.4,7.5-4.8,11.5c-1.3,3.4-2.4,7-3.5,10.6c-1,3.3-1.9,6.7-2.7,10.2c-0.7,3.2-1.4,6.4-2,9.7c-0.5,3.1-1,6.3-1.4,9.6
					c-0.4,3.1-0.7,6.3-1,9.6c-0.3,3.1-0.4,6.2-0.6,9.4c-0.1,3.2-0.2,6.4-0.2,9.7c0,0.2,0,0.4,0,0.6c0,3,0,6,0.1,9
					c0.1,3.2,0.2,6.4,0.5,9.7c0.2,3.2,0.5,6.5,0.8,9.7c0.3,3.3,0.7,6.5,1.1,9.8c0.4,3.3,0.9,6.7,1.4,10c0.5,3.4,1.1,6.8,1.8,10.2
					c0.6,3.4,1.3,6.9,2.1,10.4c0.8,3.5,1.6,7,2.5,10.5c0.9,3.5,1.8,7.1,2.8,10.6c1,3.5,2,7,3.1,10.6c1.1,3.5,2.2,6.9,3.3,10.4
					c1.1,3.4,2.3,6.8,3.5,10.1c1.2,3.3,2.4,6.6,3.7,9.9c1.2,3.2,2.5,6.4,3.9,9.6c1.3,3.2,2.7,6.4,4.1,9.5c1.4,3.2,2.9,6.5,4.4,9.7
					c1.6,3.4,3.2,6.7,4.9,10c1.9,3.9,3.9,7.7,5.9,11.5c3.1,5.9,6.4,11.7,9.7,17.4c5.2,9,10.8,17.8,16.6,26.4
					c3.9,5.8,8,11.6,12.1,17.2c2.7,3.7,5.5,7.3,8.3,10.9c0.1,0.1,0.2,0.3,0.3,0.4l21.1-12.3C253.8,464.7,253.7,464.6,253.6,464.4z"
					/>
			</g>
			<path class="st6" d="M290.4,371.8c1,0.7,2.1,1.4,3.1,2c0.1,0.1,0.3,0.2,0.4,0.3c0.9,0.6,1.8,1.3,2.7,1.9c0.3,0.2,0.5,0.4,0.8,0.6
				c1,0.8,2,1.5,3,2.3c0.1,0.1,0.2,0.1,0.3,0.2c0.9,0.7,1.9,1.5,2.8,2.3c0.2,0.2,0.4,0.3,0.6,0.5c1,0.8,1.9,1.6,2.8,2.4
				c0.4,0.3,0.8,0.7,1.1,1c0.2,0.1,0.3,0.3,0.5,0.4c0.6,0.5,1.1,1.1,1.7,1.6c0.1,0.1,0.2,0.2,0.3,0.3c0.4,0.4,0.9,0.9,1.3,1.3
				c0.2,0.2,0.4,0.4,0.5,0.5c0.3,0.3,0.7,0.7,1,1c0.2,0.2,0.4,0.4,0.6,0.6c0.3,0.3,0.6,0.7,0.9,1c0.2,0.2,0.4,0.4,0.5,0.6
				c0.3,0.3,0.6,0.7,0.9,1c0.2,0.2,0.3,0.4,0.5,0.5c0.3,0.4,0.7,0.8,1,1.1c0.1,0.1,0.2,0.2,0.3,0.3c0.4,0.5,0.9,1,1.3,1.5
				c0.1,0.1,0.2,0.2,0.3,0.3c0.3,0.4,0.6,0.7,0.9,1.1c0.2,0.2,0.4,0.4,0.5,0.6c0.2,0.3,0.4,0.5,0.6,0.8c0.2,0.2,0.3,0.4,0.5,0.6
				c0.2,0.2,0.4,0.5,0.6,0.7c0.3,0.4,0.5,0.7,0.8,1c0.1,0.1,0.2,0.2,0.3,0.4c0.3,0.5,0.7,0.9,1,1.3c0.3,0.4,0.5,0.7,0.8,1.1
				c0.1,0.1,0.1,0.1,0.2,0.2c0.2,0.3,0.4,0.5,0.6,0.8c0.1,0.1,0.2,0.2,0.2,0.3c0.1,0.2,0.3,0.4,0.4,0.6c0.1,0.1,0.2,0.2,0.2,0.3
				c0.1,0.2,0.2,0.4,0.4,0.5c0.1,0.1,0.1,0.2,0.2,0.3c0.1,0.2,0.2,0.4,0.3,0.5c0,0.1,0.1,0.1,0.1,0.2c0.1,0.2,0.3,0.4,0.4,0.6
				c0,0,0,0.1,0.1,0.1c0.1,0.2,0.2,0.3,0.3,0.4c0,0.1,0.1,0.1,0.1,0.1c0.1,0.1,0.1,0.2,0.2,0.3c0,0,0.1,0.1,0.1,0.1
				c0,0.1,0.1,0.1,0.1,0.2c0,0,0,0.1,0.1,0.1c0,0.1,0.1,0.1,0.1,0.2l21.1-12.3c0,0-0.1-0.1-0.1-0.2c0,0,0-0.1-0.1-0.1
				c0-0.1-0.1-0.1-0.1-0.2c0,0-0.1-0.1-0.1-0.1c-0.1-0.1-0.1-0.2-0.2-0.3c0,0-0.1-0.1-0.1-0.1c-0.1-0.1-0.2-0.3-0.3-0.4
				c0,0,0-0.1-0.1-0.1c-0.1-0.2-0.3-0.4-0.4-0.6c0-0.1-0.1-0.1-0.1-0.2c-0.1-0.2-0.2-0.3-0.3-0.5c-0.1-0.1-0.1-0.2-0.2-0.3
				c-0.1-0.1-0.1-0.2-0.2-0.2c-0.1-0.1-0.1-0.2-0.2-0.3c-0.1-0.1-0.2-0.2-0.2-0.3c-0.1-0.2-0.3-0.4-0.4-0.6
				c-0.1-0.1-0.2-0.2-0.2-0.3c-0.2-0.3-0.4-0.5-0.6-0.8c0-0.1-0.1-0.1-0.1-0.2c-0.2-0.3-0.5-0.7-0.8-1c0,0,0,0,0,0
				c-0.3-0.4-0.6-0.9-1-1.3c-0.1-0.1-0.2-0.2-0.3-0.4c-0.3-0.3-0.5-0.7-0.8-1c0,0-0.1-0.1-0.1-0.1c-0.1-0.2-0.3-0.4-0.5-0.6
				c-0.2-0.2-0.3-0.4-0.5-0.6c-0.2-0.2-0.4-0.5-0.6-0.8c-0.2-0.2-0.3-0.4-0.5-0.6c0,0-0.1-0.1-0.1-0.1c-0.3-0.3-0.5-0.6-0.8-1
				c-0.1-0.1-0.2-0.2-0.3-0.3c-0.4-0.5-0.8-0.9-1.2-1.4c0,0,0,0,0-0.1c-0.1-0.1-0.2-0.2-0.3-0.3c-0.3-0.4-0.7-0.8-1-1.1
				c-0.2-0.2-0.3-0.4-0.5-0.5c-0.2-0.2-0.4-0.4-0.6-0.7c-0.1-0.1-0.2-0.2-0.3-0.3c-0.2-0.2-0.4-0.4-0.5-0.6c-0.3-0.3-0.6-0.6-0.9-1
				c-0.2-0.2-0.4-0.4-0.6-0.6c-0.1-0.1-0.2-0.2-0.3-0.3c-0.2-0.2-0.5-0.5-0.7-0.7c-0.2-0.2-0.4-0.4-0.5-0.5
				c-0.4-0.4-0.9-0.9-1.3-1.3c-0.1-0.1-0.2-0.2-0.3-0.3c0,0,0,0,0,0c-0.5-0.5-1.1-1-1.6-1.5c-0.2-0.1-0.3-0.3-0.5-0.4
				c-0.3-0.3-0.6-0.6-1-0.9c-0.1-0.1-0.1-0.1-0.2-0.2c-0.9-0.8-1.8-1.6-2.8-2.4c-0.1-0.1-0.2-0.1-0.2-0.2c-0.1-0.1-0.2-0.2-0.4-0.3
				c-0.9-0.8-1.8-1.5-2.8-2.2c-0.1-0.1-0.1-0.1-0.2-0.2c0,0,0,0-0.1,0c-1-0.8-2-1.5-3-2.3c-0.1-0.1-0.2-0.2-0.3-0.3
				c-0.1-0.1-0.3-0.2-0.4-0.3c-0.9-0.6-1.8-1.3-2.7-1.9c-0.1-0.1-0.2-0.2-0.3-0.2c0,0-0.1,0-0.1-0.1c-1-0.7-2-1.4-3.1-2
				c-0.1-0.1-0.2-0.1-0.3-0.2c-0.2-0.1-0.4-0.2-0.5-0.3c-0.8-0.5-1.6-1-2.5-1.5c-0.2-0.1-0.4-0.2-0.6-0.3c-0.3-0.2-0.6-0.3-0.8-0.5
				c-0.9-0.5-1.8-1-2.6-1.5c-1.1-0.6-2.3-1.2-3.4-1.7c-1.1-0.6-2.2-1.1-3.3-1.6c-1.1-0.5-2.2-1-3.3-1.4c-1.1-0.5-2.2-0.9-3.3-1.2
				c-1.1-0.4-2.2-0.8-3.3-1.1c-1.2-0.3-2.3-0.7-3.4-0.9c-1.2-0.3-2.3-0.5-3.4-0.8c-1.2-0.2-2.4-0.4-3.5-0.6
				c-1.1-0.2-2.2-0.3-3.2-0.3l0,0c-0.1,0-0.1,0-0.2,0c0,0-0.1,0-0.1,0c-0.1,0-0.2,0-0.4,0c-0.4,0-0.8,0-1.2-0.1c-0.2,0-0.4,0-0.6,0
				c-0.4,0-0.8,0-1.2,0c-0.1,0-0.2,0-0.3,0c0,0-0.1,0-0.1,0c-0.6,0-1.1,0-1.6,0c-0.1,0-0.3,0-0.4,0c-0.4,0-0.9,0.1-1.3,0.1
				c0,0-0.1,0-0.1,0c0,0,0,0-0.1,0c-0.1,0-0.2,0-0.3,0c-0.2,0-0.5,0-0.7,0.1c-0.1,0-0.2,0-0.3,0c-0.2,0-0.4,0-0.6,0.1
				c-0.1,0-0.2,0-0.3,0c-0.2,0-0.3,0.1-0.5,0.1c-0.1,0-0.2,0-0.3,0.1c-0.1,0-0.2,0-0.2,0c-0.1,0-0.1,0-0.2,0c-0.1,0-0.2,0-0.3,0.1
				c-0.1,0-0.2,0.1-0.3,0.1c-0.1,0-0.2,0-0.3,0.1c-0.1,0-0.2,0.1-0.3,0.1c-0.1,0-0.2,0-0.2,0.1c-0.1,0-0.2,0.1-0.2,0.1
				c-0.1,0-0.1,0-0.2,0.1c0,0-0.1,0-0.1,0c0,0,0,0-0.1,0c-0.1,0-0.2,0.1-0.3,0.1c0,0-0.1,0-0.1,0c-0.1,0-0.2,0.1-0.2,0.1
				c0,0,0,0,0,0l0,0l0,0l0,0l-21.1,12.3c0,0,0,0,0,0c0,0,0,0,0,0c0,0,0,0,0,0c0.1,0,0.1-0.1,0.2-0.1c0,0,0.1,0,0.1,0
				c0.1,0,0.2-0.1,0.3-0.1c0.1,0,0.1,0,0.2-0.1c0.1,0,0.1,0,0.2-0.1c0.1,0,0.2-0.1,0.3-0.1c0.1,0,0.2,0,0.2-0.1
				c0.1,0,0.2-0.1,0.3-0.1c0.1,0,0.2,0,0.3-0.1c0.1,0,0.2-0.1,0.3-0.1c0.1,0,0.2,0,0.3-0.1c0.1,0,0.3-0.1,0.4-0.1
				c0.1,0,0.2,0,0.3-0.1c0.2,0,0.3-0.1,0.5-0.1c0.1,0,0.2,0,0.3,0c0.2,0,0.4-0.1,0.6-0.1c0.1,0,0.2,0,0.3,0c0.3,0,0.6-0.1,1-0.1
				c0.5,0,1-0.1,1.5-0.1c0.1,0,0.3,0,0.4,0c0.5,0,1.1,0,1.6,0c0,0,0.1,0,0.1,0c0.5,0,0.9,0,1.4,0c0.2,0,0.3,0,0.5,0
				c0.4,0,0.8,0,1.2,0.1c0.2,0,0.4,0,0.6,0c0.3,0,0.7,0.1,1,0.1c0.2,0,0.4,0,0.6,0.1c0.4,0,0.8,0.1,1.2,0.1c0.2,0,0.3,0,0.5,0.1
				c0.3,0,0.6,0.1,0.9,0.1c0.3,0,0.5,0.1,0.8,0.1c0.3,0.1,0.7,0.1,1,0.2c0.2,0,0.5,0.1,0.7,0.1c0.1,0,0.3,0.1,0.4,0.1
				c0.4,0.1,0.9,0.2,1.3,0.3c0.2,0,0.4,0.1,0.7,0.2c0.4,0.1,0.8,0.2,1.2,0.3c0.2,0.1,0.4,0.1,0.6,0.2c0.4,0.1,0.8,0.2,1.2,0.3
				c0.2,0.1,0.5,0.1,0.7,0.2c0.4,0.1,0.8,0.2,1.2,0.4c0.2,0.1,0.4,0.1,0.6,0.2c0.5,0.1,0.9,0.3,1.4,0.5c0.2,0.1,0.4,0.1,0.5,0.2
				c0.2,0.1,0.3,0.1,0.5,0.2c0.8,0.3,1.7,0.6,2.6,1c0.2,0.1,0.5,0.2,0.7,0.3c1,0.4,1.9,0.8,2.9,1.2c0.2,0.1,0.3,0.2,0.5,0.2
				c0.8,0.4,1.6,0.8,2.5,1.2c0.3,0.1,0.6,0.3,0.8,0.4c0.9,0.4,1.8,0.9,2.7,1.4c0.1,0.1,0.2,0.1,0.3,0.2c0.8,0.5,1.7,0.9,2.5,1.4
				c0,0,0,0,0,0l0,0h0c0.5,0.3,0.9,0.6,1.4,0.8c0.8,0.5,1.7,1,2.5,1.5C289.9,371.4,290.1,371.6,290.4,371.8z"/>
			<g>
				<polygon class="st7" points="243.9,199.7 265.1,187.4 323.1,220.9 301.9,233.2 				"/>
			</g>
			<g>
				<path class="st8" d="M330.8,75.8l-0.1,30.2c-107.8-58.6-194.4-7-194.8,117.7c-0.2,83.8,38.6,179.7,96.9,253.5l6.6-117.9
					c0.4-0.7,18.4-6.5,46.4,9.7c28.5,16.5,43,40.7,43.8,42l0.1-33.3L223,316l0.2-151.3l20.7,35l58,33.5l28.4-21l-1.2,415.1
					c-129.9-78.6-233.8-260.9-233.4-411S200.9,4.4,330.8,75.8z"/>
			</g>
			<g>
				<path class="st9" d="M329.6,377.5l-0.1,33.3c-0.8-1.3-15.2-25.5-43.8-42c-28-16.2-46-10.4-46.6-10.2L223,316L329.6,377.5z"/>
			</g>
			<g>
				<polygon class="st10" points="223.3,164.7 244.4,152.4 265.1,187.4 243.9,199.7 				"/>
			</g>
			<g>
				<polygon class="st4" points="330.4,212.2 351.5,199.9 350.3,615 329.2,627.3 				"/>
			</g>
			<g>
				<polygon class="st4" points="330.8,75.8 351.9,63.5 351.8,93.7 330.7,105.9 				"/>
			</g>
			<path class="st6" d="M174.7,57.7c0.6-0.3,1.2-0.5,1.7-0.8c1-0.4,1.9-0.8,2.9-1.2c0.6-0.3,1.2-0.5,1.8-0.8c1-0.4,1.9-0.8,2.9-1.1
				c0.7-0.2,1.3-0.5,2-0.7c0.6-0.2,1.3-0.4,1.9-0.6c0.8-0.3,1.6-0.5,2.4-0.8c0.6-0.2,1.3-0.4,1.9-0.6c0.8-0.2,1.6-0.5,2.4-0.7
				c0.7-0.2,1.3-0.3,2-0.5c0.8-0.2,1.7-0.4,2.5-0.6c0.7-0.1,1.3-0.3,2-0.4c1.1-0.2,2.2-0.5,3.4-0.7c0.2,0,0.5-0.1,0.7-0.1
				c1.4-0.2,2.8-0.5,4.2-0.7c0.4-0.1,0.7-0.1,1.1-0.1c1.1-0.1,2.3-0.3,3.4-0.4c0.4,0,0.8-0.1,1.2-0.1c1.4-0.1,2.8-0.3,4.2-0.3
				c0.3,0,0.5,0,0.8,0c1.4-0.1,2.7-0.1,4.1-0.2c0.2,0,0.4,0,0.5,0c1.4,0,2.7,0,4.1,0c1.1,0,2.3,0,3.5,0c0.7,0,1.3,0,2,0
				c1.4,0,2.8,0.1,4.2,0.2c0.4,0,0.9,0,1.3,0.1c0.8,0.1,1.7,0.1,2.5,0.2c0.9,0.1,1.8,0.1,2.7,0.2c0.8,0.1,1.7,0.2,2.6,0.3
				c0.9,0.1,1.8,0.2,2.8,0.3c0.7,0.1,1.3,0.2,2,0.3c1.1,0.2,2.2,0.3,3.3,0.5c0.7,0.1,1.5,0.3,2.2,0.4c1,0.2,2.1,0.4,3.1,0.6
				c0.7,0.1,1.3,0.3,2,0.4c1.1,0.2,2.2,0.5,3.3,0.7c0.7,0.2,1.4,0.3,2.2,0.5c1.1,0.3,2.1,0.5,3.2,0.8c0.7,0.2,1.4,0.4,2.1,0.6
				c1.1,0.3,2.1,0.6,3.2,0.9c0.7,0.2,1.4,0.4,2.2,0.6c1.1,0.3,2.2,0.7,3.3,1c0.7,0.2,1.3,0.4,2,0.6c1.2,0.4,2.5,0.8,3.7,1.2
				c0.5,0.2,1.1,0.4,1.6,0.5c1.8,0.6,3.5,1.3,5.3,1.9c0.3,0.1,0.7,0.3,1,0.4c1.5,0.6,2.9,1.1,4.4,1.7c0.6,0.2,1.2,0.5,1.8,0.7
				c1.2,0.5,2.4,1,3.6,1.5c0.7,0.3,1.3,0.6,2,0.9c1.2,0.5,2.4,1.1,3.6,1.6c0.6,0.3,1.2,0.6,1.9,0.9c1.5,0.7,2.9,1.4,4.4,2.1
				c0.4,0.2,0.7,0.4,1.1,0.5c1.8,0.9,3.7,1.8,5.5,2.8c0.5,0.3,1,0.5,1.5,0.8c1.6,0.8,3.2,1.7,4.8,2.6l21.1-12.3
				c-0.6-0.3-1.2-0.7-1.8-1c-1-0.5-2-1.1-3-1.6c-0.5-0.3-1-0.5-1.5-0.8c-1.8-0.9-3.5-1.8-5.3-2.7c-0.1,0-0.1-0.1-0.2-0.1
				c-0.4-0.2-0.7-0.4-1.1-0.5c-1.5-0.7-2.9-1.4-4.4-2.1c-0.6-0.3-1.2-0.6-1.9-0.9c-0.7-0.3-1.4-0.7-2.1-1c-0.5-0.2-1-0.4-1.5-0.6
				c-0.7-0.3-1.3-0.6-2-0.9c-1.2-0.5-2.4-1-3.6-1.5c-0.6-0.2-1.2-0.5-1.8-0.7c-0.2-0.1-0.5-0.2-0.7-0.3c-1.2-0.5-2.5-1-3.7-1.4
				c-0.3-0.1-0.7-0.3-1-0.4c-1.7-0.6-3.3-1.2-4.9-1.8c-0.1,0-0.2-0.1-0.4-0.1c-0.5-0.2-1.1-0.4-1.6-0.5c-1.3-0.4-2.5-0.8-3.7-1.2
				c-0.7-0.2-1.3-0.4-2-0.6c-0.7-0.2-1.4-0.4-2-0.6c-0.4-0.1-0.9-0.2-1.3-0.4c-0.7-0.2-1.4-0.4-2.1-0.6c-1.1-0.3-2.1-0.6-3.2-0.9
				c-0.7-0.2-1.4-0.4-2.1-0.6c-0.3-0.1-0.7-0.2-1-0.3c-0.7-0.2-1.4-0.3-2.2-0.5c-0.7-0.2-1.5-0.3-2.2-0.5c-1.1-0.2-2.2-0.5-3.3-0.7
				c-0.7-0.1-1.3-0.3-2-0.4c-0.1,0-0.3-0.1-0.4-0.1c-0.9-0.2-1.8-0.3-2.7-0.5c-0.7-0.1-1.5-0.3-2.2-0.4c-1.1-0.2-2.2-0.3-3.3-0.5
				c-0.7-0.1-1.3-0.2-2-0.3c-0.1,0-0.1,0-0.2,0c-0.9-0.1-1.7-0.2-2.6-0.3c-0.8-0.1-1.7-0.2-2.5-0.3c-0.9-0.1-1.8-0.2-2.7-0.2
				c-0.8-0.1-1.7-0.2-2.5-0.2c0,0-0.1,0-0.1,0c-0.4,0-0.8,0-1.2-0.1c-1.4-0.1-2.8-0.2-4.2-0.2c-0.7,0-1.3,0-2,0c-1.2,0-2.3,0-3.5,0
				c-0.2,0-0.5,0-0.7,0c-1.1,0-2.3,0-3.4,0.1c-0.2,0-0.4,0-0.5,0c-1.4,0-2.7,0.1-4.1,0.2c-0.3,0-0.5,0-0.8,0
				c-1.2,0.1-2.4,0.2-3.5,0.3c-0.2,0-0.5,0-0.7,0.1c-0.4,0-0.8,0.1-1.2,0.1c-1.1,0.1-2.3,0.3-3.4,0.4c-0.4,0-0.7,0.1-1.1,0.1
				c-1.4,0.2-2.8,0.4-4.2,0.7c-0.2,0-0.5,0.1-0.7,0.1c-0.8,0.1-1.7,0.3-2.5,0.5c-0.3,0.1-0.6,0.1-0.9,0.2c-0.7,0.1-1.3,0.3-2,0.4
				c-0.8,0.2-1.7,0.4-2.5,0.6c-0.7,0.2-1.3,0.3-2,0.5c-0.8,0.2-1.6,0.4-2.4,0.7c-0.7,0.2-1.3,0.4-1.9,0.6c-0.8,0.2-1.6,0.5-2.4,0.8
				c-0.6,0.2-1.3,0.4-1.9,0.6c-0.3,0.1-0.6,0.2-0.8,0.3c-0.4,0.1-0.8,0.3-1.1,0.4c-1,0.4-2,0.7-2.9,1.1c-0.6,0.2-1.2,0.5-1.8,0.8
				c-1,0.4-1.9,0.8-2.9,1.3c-0.6,0.3-1.2,0.5-1.7,0.8c-1,0.5-2,1-3,1.5c-0.5,0.2-1,0.5-1.5,0.7c-1.5,0.8-2.9,1.6-4.4,2.4l-21.1,12.3
				c1.4-0.8,2.9-1.6,4.4-2.4c0.5-0.3,1-0.5,1.5-0.7C172.6,58.7,173.6,58.2,174.7,57.7z"/>
		</g>
		<g class="st0">
			<g>
				<polygon class="st11" points="337.2,381.9 358.3,369.6 358.2,403 337.1,415.3 				"/>
			</g>
			<path class="st12" d="M460.8,585.9c1.2-0.5,2.4-1,3.6-1.6c0.2-0.1,0.4-0.2,0.7-0.3c1.2-0.6,2.4-1.1,3.6-1.7
				c0.2-0.1,0.3-0.2,0.5-0.3c1.2-0.6,2.4-1.3,3.6-2l21.1-12.3c-1.2,0.7-2.4,1.4-3.6,2c-0.2,0.1-0.3,0.2-0.5,0.3
				c-1.2,0.6-2.4,1.2-3.6,1.7c-0.2,0.1-0.4,0.2-0.7,0.3c-1.2,0.5-2.4,1.1-3.6,1.6c-0.2,0.1-0.4,0.2-0.6,0.2c-1.3,0.5-2.6,1-3.9,1.5
				c-0.1,0-0.2,0.1-0.3,0.1c-0.9,0.3-1.8,0.6-2.7,0.9c-0.3,0.1-0.6,0.2-0.9,0.3c-0.8,0.2-1.6,0.5-2.4,0.7c-0.2,0.1-0.5,0.1-0.7,0.2
				c-1,0.3-2.1,0.5-3.1,0.8c-0.2,0.1-0.5,0.1-0.7,0.2c-0.8,0.2-1.7,0.4-2.6,0.5c-0.3,0.1-0.6,0.1-0.9,0.2c-1.3,0.3-2.6,0.5-4,0.7
				c-0.2,0-0.4,0.1-0.7,0.1c-1.4,0.2-2.8,0.4-4.2,0.6l-21.1,12.3c1.4-0.2,2.8-0.3,4.2-0.6c0.2,0,0.4-0.1,0.7-0.1
				c1.3-0.2,2.7-0.4,4-0.7c0.1,0,0.2,0,0.4-0.1c0.2,0,0.3-0.1,0.5-0.1c0.9-0.2,1.7-0.4,2.6-0.5c0.2-0.1,0.5-0.1,0.7-0.2
				c1.1-0.2,2.1-0.5,3.1-0.8c0.2-0.1,0.5-0.1,0.7-0.2c0.8-0.2,1.6-0.5,2.4-0.7c0.3-0.1,0.6-0.2,0.9-0.3c0.9-0.3,1.8-0.6,2.7-0.9
				c0.1,0,0.2-0.1,0.3-0.1c0,0,0,0,0,0c1.3-0.5,2.6-0.9,3.9-1.5C460.4,586,460.6,585.9,460.8,585.9z"/>
			<g>
				<polygon class="st13" points="427.4,467.4 448.6,455.2 454.2,580.5 433.1,592.8 				"/>
			</g>
			<path class="st14" d="M385.5,426.7c1.1,0.7,2.1,1.4,3.1,2.1c0.1,0.1,0.2,0.2,0.3,0.2c1,0.7,2,1.4,2.9,2.1
				c0.3,0.2,0.5,0.4,0.8,0.6c1.1,0.8,2.1,1.6,3.2,2.4c0.2,0.1,0.3,0.2,0.5,0.4c1.1,0.9,2.1,1.7,3.2,2.6c0.1,0.1,0.3,0.2,0.4,0.3
				c0.2,0.2,0.5,0.4,0.7,0.6c0.4,0.4,0.9,0.7,1.3,1.1c0.3,0.2,0.5,0.5,0.8,0.7c0.4,0.3,0.8,0.7,1.1,1c0.3,0.3,0.6,0.5,0.9,0.8
				c0.3,0.3,0.7,0.6,1,0.9c0.3,0.3,0.6,0.5,0.9,0.8c0.3,0.3,0.6,0.6,1,0.9c0.3,0.3,0.6,0.6,0.9,0.9c0.3,0.3,0.6,0.6,0.9,0.9
				c0.3,0.3,0.6,0.6,0.9,0.9c0.3,0.3,0.6,0.6,0.8,0.8c0.3,0.3,0.6,0.6,0.9,0.9c0.3,0.3,0.5,0.5,0.8,0.8c0.3,0.3,0.6,0.6,0.9,0.9
				c0.2,0.3,0.5,0.5,0.7,0.8c0.3,0.3,0.6,0.7,0.9,1c0.2,0.2,0.4,0.5,0.6,0.7c0.3,0.3,0.6,0.7,0.9,1c0.2,0.2,0.4,0.4,0.6,0.6
				c1,1.1,1.9,2.2,2.7,3.2c0.1,0.1,0.2,0.3,0.3,0.4c0.3,0.4,0.7,0.8,1,1.2c0.1,0.2,0.3,0.3,0.4,0.5c0.3,0.4,0.6,0.7,0.9,1.1
				c0.1,0.1,0.2,0.3,0.3,0.4c0.1,0.1,0.2,0.2,0.3,0.4c0.2,0.2,0.4,0.5,0.5,0.7c0.1,0.1,0.2,0.2,0.3,0.4c0.2,0.2,0.3,0.4,0.5,0.6
				c0.1,0.1,0.1,0.2,0.2,0.3c0.2,0.3,0.4,0.6,0.6,0.8c0,0,0.1,0.1,0.1,0.1c0.2,0.2,0.3,0.4,0.5,0.6c0.1,0.1,0.1,0.2,0.2,0.2
				c0.1,0.2,0.2,0.3,0.3,0.4c0,0.1,0.1,0.1,0.1,0.2c0.1,0.2,0.3,0.4,0.4,0.5c0,0,0,0,0,0c0.1,0.1,0.2,0.3,0.3,0.4
				c0,0,0.1,0.1,0.1,0.1c0,0.1,0.1,0.1,0.1,0.2c0,0,0,0.1,0.1,0.1c0,0.1,0.1,0.1,0.1,0.1l21.1-12.3c0,0-0.1-0.1-0.1-0.1c0,0,0,0,0,0
				c0-0.1-0.1-0.1-0.2-0.2c0,0,0-0.1-0.1-0.1c-0.1-0.1-0.2-0.2-0.3-0.4c0,0,0,0,0,0c-0.1-0.2-0.2-0.3-0.4-0.5c0,0-0.1-0.1-0.1-0.1
				c-0.1-0.1-0.2-0.3-0.3-0.5c0-0.1-0.1-0.1-0.1-0.2c-0.2-0.2-0.3-0.4-0.5-0.7c0,0,0,0-0.1-0.1c0,0,0,0,0,0
				c-0.2-0.3-0.4-0.5-0.6-0.8c-0.1-0.1-0.1-0.2-0.2-0.3c-0.2-0.2-0.3-0.4-0.5-0.7c-0.1-0.1-0.2-0.2-0.3-0.4
				c-0.2-0.2-0.4-0.5-0.5-0.7c-0.1-0.1-0.2-0.2-0.3-0.4c0-0.1-0.1-0.1-0.1-0.2c-0.1-0.1-0.1-0.2-0.2-0.3c-0.3-0.4-0.6-0.7-0.9-1.1
				c-0.1-0.2-0.3-0.3-0.4-0.5c-0.3-0.4-0.7-0.8-1-1.2c-0.1-0.1-0.2-0.2-0.2-0.3c0,0-0.1-0.1-0.1-0.1c-0.8-1-1.8-2.1-2.7-3.2
				c0,0-0.1-0.1-0.1-0.1c-0.1-0.2-0.3-0.3-0.4-0.5c-0.3-0.3-0.6-0.7-0.9-1c-0.2-0.2-0.4-0.5-0.6-0.7c-0.3-0.3-0.6-0.7-0.9-1
				c-0.1-0.1-0.2-0.2-0.2-0.3c-0.2-0.2-0.3-0.3-0.5-0.5c-0.3-0.3-0.6-0.6-0.9-0.9c-0.3-0.3-0.5-0.5-0.8-0.8
				c-0.3-0.3-0.6-0.6-0.9-0.9c-0.1-0.1-0.2-0.2-0.3-0.3c-0.2-0.2-0.3-0.3-0.5-0.5c-0.3-0.3-0.6-0.6-0.9-0.9
				c-0.3-0.3-0.6-0.6-0.9-0.9c-0.3-0.3-0.6-0.6-0.9-0.9c-0.1-0.1-0.2-0.2-0.4-0.4c-0.2-0.2-0.4-0.4-0.6-0.6
				c-0.3-0.3-0.6-0.5-0.9-0.8c-0.3-0.3-0.7-0.6-1-0.9c-0.3-0.3-0.6-0.5-0.9-0.8c-0.1-0.1-0.2-0.2-0.3-0.3c-0.3-0.2-0.5-0.5-0.8-0.7
				c-0.3-0.2-0.5-0.5-0.8-0.7c-0.4-0.4-0.8-0.7-1.3-1.1c-0.2-0.2-0.5-0.4-0.7-0.6c0,0-0.1-0.1-0.1-0.1c-0.1-0.1-0.2-0.1-0.2-0.2
				c-1-0.9-2.1-1.7-3.2-2.6c-0.1-0.1-0.2-0.2-0.3-0.3c0,0-0.1-0.1-0.1-0.1c-1-0.8-2.1-1.6-3.2-2.4c-0.1-0.1-0.2-0.2-0.3-0.3
				c-0.1-0.1-0.3-0.2-0.4-0.3c-1-0.7-1.9-1.4-2.9-2.1c-0.1-0.1-0.2-0.1-0.3-0.2c0,0,0,0-0.1,0c-1-0.7-2.1-1.4-3.1-2.1
				c-0.1-0.1-0.2-0.1-0.3-0.2c-0.2-0.1-0.4-0.2-0.5-0.3c-0.8-0.5-1.5-1-2.3-1.4c-0.2-0.1-0.4-0.2-0.6-0.4c-0.3-0.2-0.5-0.3-0.8-0.5
				c-0.9-0.5-1.8-1-2.7-1.5c0,0,0,0,0,0c-0.7-0.4-1.5-0.8-2.2-1.2c-0.2-0.1-0.4-0.2-0.6-0.3c-0.2-0.1-0.4-0.2-0.6-0.3
				c-0.4-0.2-0.9-0.4-1.3-0.6c-0.1,0-0.2-0.1-0.2-0.1c-0.6-0.3-1.1-0.5-1.7-0.8c-0.1,0-0.2-0.1-0.3-0.1c-1-0.4-1.9-0.8-2.8-1.2
				c0,0-0.1,0-0.1,0c-0.1,0-0.2-0.1-0.3-0.1c-0.8-0.3-1.6-0.6-2.4-0.9c-0.1,0-0.3-0.1-0.4-0.1c-0.1,0-0.3-0.1-0.4-0.1
				c-0.8-0.3-1.6-0.5-2.3-0.8c-0.1,0-0.2-0.1-0.3-0.1c0,0-0.1,0-0.1,0c-0.9-0.3-1.8-0.5-2.6-0.7c-0.1,0-0.2-0.1-0.3-0.1
				c-0.1,0-0.2,0-0.3-0.1c-0.9-0.2-1.7-0.4-2.6-0.6c0,0,0,0,0,0c0,0,0,0,0,0c0,0-0.1,0-0.1,0c-0.5-0.1-1-0.2-1.5-0.3
				c-0.2,0-0.3-0.1-0.5-0.1c-0.3,0-0.5-0.1-0.8-0.1c-0.1,0-0.2,0-0.3,0c-0.2,0-0.5-0.1-0.7-0.1c-0.3,0-0.6-0.1-0.8-0.1
				c-0.2,0-0.4,0-0.7-0.1c-0.1,0-0.3,0-0.5,0c-0.1,0-0.2,0-0.3,0c-0.3,0-0.5,0-0.8,0c-0.2,0-0.4,0-0.7,0c-0.3,0-0.5,0-0.8,0
				c-0.1,0-0.3,0-0.4,0c-0.1,0-0.1,0-0.2,0c-0.4,0-0.8,0-1.1,0c-0.1,0-0.2,0-0.3,0c-0.5,0-0.9,0.1-1.3,0.1c0,0,0,0-0.1,0
				c-0.1,0-0.1,0-0.2,0c-0.4,0-0.9,0.1-1.3,0.1c-0.1,0-0.2,0-0.3,0c-0.4,0.1-0.9,0.1-1.2,0.2c0,0,0,0-0.1,0c-0.1,0-0.2,0-0.3,0.1
				c-0.2,0-0.4,0.1-0.5,0.1c-0.1,0-0.2,0.1-0.3,0.1c-0.2,0-0.3,0.1-0.4,0.1c-0.1,0-0.2,0.1-0.3,0.1c-0.1,0-0.3,0.1-0.4,0.1
				c-0.1,0-0.2,0.1-0.3,0.1c-0.1,0-0.2,0.1-0.3,0.1c0,0-0.1,0-0.1,0c0,0,0,0-0.1,0c-0.2,0.1-0.4,0.1-0.5,0.2c0,0,0,0,0,0
				c-0.2,0.1-0.3,0.1-0.4,0.2c0,0-0.1,0-0.1,0c-0.1,0-0.2,0.1-0.2,0.1c0,0,0,0-0.1,0c-0.1,0-0.1,0.1-0.1,0.1l-21.1,12.3
				c0,0,0.1,0,0.1-0.1c0,0,0,0,0.1,0c0.1,0,0.1-0.1,0.2-0.1c0,0,0.1,0,0.1,0c0.1-0.1,0.3-0.1,0.4-0.2c0,0,0,0,0,0
				c0.1-0.1,0.3-0.1,0.5-0.2c0.1,0,0.1,0,0.2-0.1c0.1,0,0.2-0.1,0.3-0.1c0.1,0,0.2-0.1,0.3-0.1c0.1,0,0.3-0.1,0.4-0.1
				c0.1,0,0.2-0.1,0.3-0.1c0.1,0,0.3-0.1,0.4-0.1c0.1,0,0.2-0.1,0.3-0.1c0.2,0,0.3-0.1,0.5-0.1c0.1,0,0.2,0,0.3-0.1
				c0.4-0.1,0.8-0.1,1.2-0.2c0.1,0,0.2,0,0.3,0c0.4-0.1,0.8-0.1,1.3-0.1c0.1,0,0.2,0,0.2,0c0.4,0,0.9-0.1,1.3-0.1c0.1,0,0.2,0,0.3,0
				c0.4,0,0.7,0,1.1,0c0.2,0,0.4,0,0.6,0c0.3,0,0.5,0,0.8,0c0.2,0,0.4,0,0.7,0c0.3,0,0.5,0,0.8,0c0.2,0,0.5,0,0.8,0.1
				c0.2,0,0.4,0,0.7,0.1c0.3,0,0.6,0.1,0.8,0.1c0.2,0,0.5,0.1,0.7,0.1c0.3,0,0.7,0.1,1,0.1c0.2,0,0.3,0,0.5,0.1
				c0.5,0.1,1,0.2,1.5,0.3c0,0,0.1,0,0.1,0c0,0,0,0,0,0c0.8,0.2,1.7,0.4,2.6,0.6c0.2,0,0.4,0.1,0.6,0.1c0.8,0.2,1.7,0.5,2.6,0.7
				c0.1,0,0.2,0.1,0.4,0.1c0.8,0.2,1.5,0.5,2.3,0.8c0.3,0.1,0.5,0.2,0.8,0.3c0.8,0.3,1.6,0.6,2.4,0.9c0.1,0.1,0.3,0.1,0.4,0.2
				c0.9,0.4,1.9,0.8,2.8,1.2c0.6,0.3,1.3,0.6,2,0.9c0.1,0,0.2,0.1,0.2,0.1c0.7,0.3,1.3,0.6,2,1c0.2,0.1,0.4,0.2,0.6,0.3
				c0.7,0.4,1.5,0.8,2.3,1.2c0.9,0.5,1.8,1,2.7,1.5c0.5,0.3,0.9,0.6,1.4,0.8c0.8,0.5,1.6,0.9,2.3,1.4
				C384.9,426.3,385.2,426.5,385.5,426.7z"/>
			<g>
				<path class="st15" d="M443.7,443.4l-16.3,24c-0.6-0.9-18.5-27.4-46.5-43.5c-28.5-16.5-43.1-9-43.9-8.6l0.1-33.3L443.7,443.4z"/>
			</g>
			<g>
				<polygon class="st16" points="443.7,443.4 464.8,431.2 448.6,455.2 427.4,467.4 				"/>
			</g>
			<g>
				<polygon class="st17" points="337.2,381.9 358.3,369.6 464.8,431.2 443.7,443.4 				"/>
			</g>
			<g>
				<polygon class="st18" points="337.3,216.2 358.4,203.9 386.6,257.6 365.5,269.9 				"/>
			</g>
			<g>
				<polygon class="st19" points="365.5,269.9 386.6,257.6 444.7,291.1 423.5,303.4 				"/>
			</g>
			<g>
				<polygon class="st20" points="423.5,303.4 444.7,291.1 465.5,280 444.3,292.3 				"/>
			</g>
			<g>
				<polygon class="st11" points="444.3,292.3 465.5,280 465,430.9 443.9,443.2 				"/>
			</g>
			<g>
				<path class="st21" d="M337.7,79.8c129.9,78.6,233.8,260.9,233.4,411c-0.4,150.1-105.1,212-235,140.6l1.2-415.1l28.2,53.7
					l58,33.5l20.8-11.1l-0.4,150.8l-106.7-61.2l-0.1,33.3c0.8-0.4,15.3-7.9,43.9,8.6c28,16.2,45.9,42.6,46.5,43.5l5.7,125.3
					c58.5-6.4,97.7-57.2,98-141c0.4-124.6-85.7-276-193.5-341.8L337.7,79.8z"/>
			</g>
			<path class="st22" d="M592.2,479.2c0-0.2,0-0.5,0-0.7c0-2.1,0-4.3-0.1-6.4c0-0.6,0-1.3,0-1.9c0-0.8,0-1.7-0.1-2.5
				c0-0.7-0.1-1.3-0.1-2c0-0.8-0.1-1.6-0.1-2.3c-0.1-1.5-0.1-3.1-0.2-4.6c0-0.7-0.1-1.3-0.1-2c0-0.2,0-0.4,0-0.6
				c-0.1-2-0.3-4-0.4-5.9c0-0.3,0-0.5-0.1-0.8c-0.1-1.6-0.3-3.3-0.4-5c0-0.3-0.1-0.6-0.1-0.9c-0.1-0.7-0.1-1.5-0.2-2.2
				c-0.2-1.5-0.3-3-0.5-4.6c-0.1-0.8-0.2-1.6-0.3-2.4c-0.1-0.6-0.1-1.2-0.2-1.7c-0.1-0.9-0.2-1.8-0.4-2.8c-0.1-0.8-0.2-1.5-0.3-2.3
				c-0.3-1.8-0.5-3.6-0.8-5.5c-0.1-0.4-0.1-0.9-0.2-1.3c0-0.1,0-0.1,0-0.2c-0.3-2.2-0.7-4.4-1.1-6.5c-0.1-0.6-0.2-1.3-0.3-1.9
				c-0.2-1.2-0.4-2.5-0.7-3.7c-0.1-0.4-0.2-0.8-0.2-1.2c-0.2-0.9-0.3-1.7-0.5-2.6c-0.3-1.5-0.6-2.9-0.9-4.4
				c-0.2-0.9-0.4-1.8-0.6-2.7c-0.1-0.6-0.2-1.2-0.4-1.7c-0.2-0.9-0.4-1.8-0.6-2.6c-0.2-0.9-0.4-1.7-0.6-2.6
				c-0.4-1.6-0.8-3.2-1.2-4.8c-0.2-0.7-0.3-1.4-0.5-2.1c0-0.2-0.1-0.3-0.1-0.5c-0.5-2.2-1.1-4.3-1.6-6.5c-0.1-0.3-0.1-0.5-0.2-0.8
				c-0.5-1.8-1-3.7-1.5-5.5c-0.1-0.2-0.1-0.4-0.2-0.6c-0.2-0.8-0.4-1.5-0.7-2.3c-0.4-1.5-0.9-3.1-1.3-4.6c-0.3-0.9-0.5-1.8-0.8-2.6
				c-0.2-0.8-0.5-1.6-0.7-2.4c-0.2-0.6-0.4-1.3-0.6-1.9c-0.3-0.9-0.5-1.8-0.8-2.6c-0.5-1.5-1-3-1.4-4.5c-0.3-0.8-0.5-1.6-0.8-2.5
				c-0.1-0.3-0.2-0.7-0.3-1c-0.5-1.5-1-3-1.5-4.4c-0.2-0.5-0.3-0.9-0.5-1.4c-0.7-2.1-1.5-4.2-2.3-6.3c-0.1-0.2-0.1-0.3-0.2-0.5
				c-0.2-0.6-0.4-1.1-0.6-1.7c-0.6-1.7-1.2-3.4-1.9-5.1c-0.3-0.8-0.6-1.5-0.9-2.3c-0.3-0.8-0.6-1.5-0.9-2.3
				c-0.3-0.8-0.6-1.5-0.9-2.3c-0.3-0.8-0.6-1.5-0.9-2.3c-0.7-1.7-1.4-3.5-2.1-5.2c-0.2-0.5-0.4-1-0.6-1.5c0-0.1-0.1-0.2-0.1-0.4
				c-0.9-2.1-1.8-4.2-2.6-6.2c-0.2-0.6-0.5-1.1-0.7-1.7c-0.5-1.2-1-2.3-1.5-3.5c-0.2-0.5-0.4-1-0.6-1.4c-0.4-0.8-0.7-1.6-1.1-2.4
				c-0.7-1.5-1.3-3-2-4.4c-0.4-0.8-0.7-1.6-1.1-2.3c-0.2-0.4-0.4-0.8-0.6-1.2c-0.5-1.1-1.1-2.2-1.6-3.4c-0.4-0.7-0.7-1.5-1.1-2.2
				c-1-2.1-2-4.2-3.1-6.3c-0.1-0.1-0.1-0.3-0.2-0.4c0,0,0,0,0,0c-0.2-0.4-0.4-0.8-0.6-1.3c-1-2-2-4-3-6c-0.4-0.9-0.9-1.7-1.4-2.6
				c-0.8-1.5-1.6-3.1-2.4-4.6c-0.1-0.1-0.1-0.2-0.2-0.3c-1.1-2-2.2-4-3.3-6.1c-0.3-0.5-0.6-1.1-0.9-1.6c-0.9-1.6-1.8-3.2-2.7-4.8
				c-0.4-0.7-0.8-1.4-1.2-2.1c-0.8-1.5-1.7-3-2.6-4.4c-0.4-0.7-0.8-1.3-1.2-2c-0.2-0.3-0.4-0.6-0.6-0.9c-0.5-0.8-1-1.6-1.5-2.4
				c-0.7-1.2-1.5-2.5-2.2-3.7c-0.7-1.1-1.3-2.2-2-3.2c-0.8-1.2-1.5-2.5-2.3-3.7c-0.7-1.1-1.4-2.2-2-3.2c-0.8-1.2-1.5-2.4-2.3-3.6
				c-0.7-1.1-1.4-2.1-2.1-3.2c-0.8-1.2-1.6-2.4-2.4-3.6c-0.3-0.4-0.5-0.8-0.8-1.2c-0.6-0.9-1.3-1.8-1.9-2.8
				c-0.4-0.6-0.9-1.3-1.3-1.9c-1.4-2-2.8-4-4.2-6c0,0,0,0,0,0c-1.4-2-2.8-4-4.2-6c-0.4-0.6-0.9-1.2-1.4-1.9c-0.7-0.9-1.3-1.8-2-2.7
				c-0.3-0.4-0.5-0.7-0.8-1.1c-0.9-1.3-1.9-2.6-2.9-3.8c-0.7-0.9-1.4-1.9-2.1-2.8c-1-1.3-2-2.6-3-3.9c-0.5-0.7-1.1-1.4-1.6-2.1
				c-0.2-0.2-0.3-0.4-0.5-0.6c-0.7-0.9-1.4-1.8-2.2-2.7c-0.9-1.1-1.8-2.2-2.7-3.3c-0.7-0.9-1.5-1.8-2.2-2.7c-0.7-0.8-1.3-1.6-2-2.4
				c-0.2-0.3-0.5-0.6-0.7-0.9c-0.7-0.8-1.3-1.6-2-2.3c-1-1.1-1.9-2.3-2.9-3.4c-0.7-0.8-1.4-1.6-2-2.4c-0.5-0.6-1-1.2-1.5-1.7
				c-0.5-0.5-0.9-1-1.4-1.5c-0.7-0.8-1.4-1.6-2.1-2.3c-1-1.1-1.9-2.2-2.9-3.2c-0.7-0.8-1.4-1.5-2.1-2.3c-0.3-0.3-0.6-0.7-0.9-1
				c-0.7-0.7-1.4-1.5-2.1-2.2c-0.7-0.8-1.4-1.5-2.1-2.3c-1-1.1-2.1-2.2-3.1-3.3c-0.7-0.7-1.3-1.4-2-2.1c-0.1-0.1-0.3-0.3-0.4-0.4
				c-1-1-2-2-3-3c-0.6-0.6-1.2-1.2-1.8-1.9c-1.5-1.5-3-3-4.5-4.4c-0.3-0.2-0.5-0.5-0.8-0.7c0,0,0,0,0,0c-1.8-1.7-3.6-3.4-5.4-5.1
				c-0.5-0.5-1.1-1-1.6-1.5c-1.2-1.1-2.4-2.2-3.6-3.3c-0.1-0.1-0.2-0.2-0.3-0.2c-0.7-0.6-1.3-1.2-2-1.8c-1.2-1-2.3-2-3.5-3.1
				c-0.8-0.7-1.5-1.3-2.3-2c-0.9-0.8-1.7-1.5-2.6-2.3c-0.2-0.2-0.4-0.3-0.6-0.5c-0.8-0.7-1.6-1.3-2.4-2c-1.1-0.9-2.1-1.8-3.2-2.6
				c-0.8-0.7-1.6-1.3-2.5-2c-0.7-0.6-1.4-1.1-2.1-1.7c-0.4-0.3-0.7-0.6-1.1-0.8c-0.8-0.6-1.5-1.2-2.3-1.8c-1.1-0.8-2.2-1.7-3.3-2.5
				c-0.8-0.6-1.6-1.2-2.3-1.8c-0.5-0.4-1-0.7-1.4-1.1c-0.6-0.5-1.3-0.9-1.9-1.4c-0.8-0.5-1.5-1.1-2.3-1.6c-1.2-0.8-2.3-1.7-3.5-2.5
				c-0.7-0.5-1.4-1-2.1-1.5c-0.2-0.2-0.4-0.3-0.7-0.5c-1.3-0.9-2.5-1.7-3.8-2.5c-0.4-0.2-0.7-0.5-1.1-0.7c-1.8-1.2-3.5-2.3-5.3-3.4
				c-0.1-0.1-0.2-0.1-0.3-0.2c-2.1-1.3-4.3-2.7-6.4-4l-21.1,12.3c2.1,1.3,4.3,2.6,6.4,4c1.9,1.2,3.7,2.4,5.6,3.6
				c0.4,0.2,0.7,0.5,1.1,0.8c1.5,1,3,2,4.4,3c0.7,0.5,1.4,1,2.1,1.5c1.2,0.8,2.3,1.6,3.5,2.5c0.8,0.5,1.5,1.1,2.3,1.6
				c1.1,0.8,2.2,1.6,3.3,2.5c0.8,0.6,1.6,1.2,2.3,1.8c1.1,0.8,2.2,1.7,3.3,2.5c0.8,0.6,1.5,1.2,2.3,1.8c1.1,0.8,2.1,1.7,3.2,2.5
				c0.8,0.7,1.6,1.3,2.5,2c1.1,0.9,2.1,1.7,3.2,2.6c0.8,0.7,1.6,1.3,2.4,2c1.1,0.9,2.2,1.8,3.3,2.8c0.8,0.7,1.5,1.3,2.3,2
				c1.2,1,2.3,2,3.5,3.1c0.7,0.6,1.3,1.2,2,1.8c1.3,1.2,2.6,2.3,3.9,3.5c0.5,0.5,1.1,1,1.6,1.5c1.8,1.7,3.6,3.4,5.4,5.1
				c0.3,0.2,0.5,0.5,0.8,0.7c1.5,1.5,3,2.9,4.5,4.4c0.6,0.6,1.2,1.2,1.8,1.9c1.1,1.1,2.3,2.3,3.4,3.4c0.7,0.7,1.3,1.4,2,2.1
				c1.1,1.1,2.1,2.2,3.1,3.3c0.7,0.7,1.4,1.5,2.1,2.3c1,1.1,2,2.1,3,3.2c0.7,0.8,1.4,1.5,2.1,2.3c1,1.1,2,2.1,2.9,3.2
				c0.7,0.8,1.4,1.6,2.1,2.3c1,1.1,1.9,2.2,2.9,3.3c0.7,0.8,1.4,1.6,2,2.4c1,1.1,1.9,2.3,2.9,3.4c0.7,0.8,1.3,1.5,2,2.3
				c0.9,1.1,1.8,2.2,2.7,3.3c0.7,0.9,1.5,1.8,2.2,2.7c0.9,1.1,1.8,2.2,2.7,3.3c0.7,0.9,1.5,1.8,2.2,2.7c0.7,0.9,1.4,1.8,2.1,2.7
				c1,1.3,2,2.6,3,3.9c0.7,0.9,1.4,1.9,2.1,2.8c1,1.3,1.9,2.5,2.9,3.8c0.9,1.3,1.9,2.5,2.8,3.8c0.5,0.6,0.9,1.2,1.4,1.9
				c1.4,2,2.8,4,4.2,6c0,0,0,0,0,0c1.4,2,2.8,4,4.2,6c0.4,0.6,0.9,1.3,1.3,1.9c0.9,1.3,1.8,2.6,2.7,4c0.8,1.2,1.6,2.4,2.4,3.6
				c0.7,1.1,1.4,2.1,2.1,3.2c0.8,1.2,1.5,2.4,2.3,3.6c0.7,1.1,1.4,2.2,2,3.2c0.8,1.2,1.5,2.4,2.3,3.7c0.7,1.1,1.3,2.2,2,3.2
				c0.8,1.2,1.5,2.5,2.2,3.7c0.7,1.1,1.4,2.3,2,3.4c0.4,0.7,0.8,1.3,1.2,2c0.9,1.5,1.7,3,2.6,4.4c0.4,0.7,0.8,1.4,1.2,2.1
				c0.9,1.6,1.8,3.2,2.7,4.8c0.3,0.5,0.6,1.1,0.9,1.6c1.2,2.1,2.3,4.2,3.4,6.3c0.8,1.5,1.6,3.1,2.4,4.6c0.4,0.9,0.9,1.7,1.3,2.6
				c1,2,2,4,3,6c0.2,0.4,0.4,0.9,0.6,1.3c0.1,0.1,0.1,0.3,0.2,0.4c1,2.1,2.1,4.2,3.1,6.3c0.4,0.7,0.7,1.5,1.1,2.2
				c0.7,1.5,1.4,3,2.2,4.6c0.4,0.8,0.7,1.5,1.1,2.3c0.7,1.5,1.4,3,2,4.4c0.4,0.8,0.7,1.6,1.1,2.4c0.7,1.6,1.4,3.3,2.2,4.9
				c0.2,0.6,0.5,1.1,0.7,1.7c0.9,2.2,1.9,4.4,2.8,6.6c0.2,0.5,0.4,1,0.6,1.5c0.7,1.7,1.4,3.5,2.1,5.2c0.3,0.8,0.6,1.5,0.9,2.3
				c0.6,1.5,1.2,3.1,1.8,4.6c0.3,0.8,0.6,1.5,0.9,2.3c0.6,1.7,1.3,3.4,1.9,5.1c0.2,0.6,0.4,1.1,0.6,1.7c0.8,2.3,1.6,4.5,2.4,6.8
				c0.2,0.5,0.3,0.9,0.5,1.4c0.6,1.8,1.2,3.6,1.8,5.4c0.3,0.8,0.5,1.6,0.8,2.5c0.5,1.5,1,3,1.4,4.5c0.3,0.9,0.6,1.8,0.8,2.6
				c0.5,1.5,0.9,2.9,1.3,4.4c0.3,0.9,0.5,1.8,0.8,2.6c0.5,1.5,0.9,3.1,1.3,4.6c0.2,0.8,0.4,1.5,0.7,2.3c0.6,2,1.1,4.1,1.7,6.1
				c0.1,0.3,0.1,0.5,0.2,0.8c0.6,2.3,1.2,4.6,1.8,6.9c0.2,0.7,0.3,1.4,0.5,2.1c0.4,1.6,0.8,3.2,1.2,4.8c0.2,0.9,0.4,1.7,0.6,2.6
				c0.3,1.5,0.7,2.9,1,4.4c0.2,0.9,0.4,1.8,0.6,2.7c0.3,1.5,0.6,2.9,0.9,4.4c0.2,0.9,0.3,1.7,0.5,2.6c0.3,1.6,0.6,3.3,0.9,4.9
				c0.1,0.6,0.2,1.3,0.3,1.9c0.4,2.3,0.8,4.5,1.1,6.8c0.1,0.4,0.1,0.9,0.2,1.3c0.3,1.8,0.6,3.6,0.8,5.5c0.1,0.8,0.2,1.5,0.3,2.3
				c0.2,1.5,0.4,3,0.6,4.5c0.1,0.8,0.2,1.6,0.3,2.4c0.2,1.5,0.3,3,0.5,4.6c0.1,0.7,0.2,1.5,0.2,2.2c0.2,2,0.4,3.9,0.5,5.9
				c0,0.3,0,0.5,0.1,0.8c0.2,2.2,0.3,4.4,0.5,6.6c0,0.7,0.1,1.3,0.1,2c0.1,1.5,0.2,3.1,0.2,4.6c0,0.8,0.1,1.6,0.1,2.3
				c0.1,1.5,0.1,3,0.1,4.5c0,0.6,0,1.3,0,1.9c0,2.1,0.1,4.3,0.1,6.4c0,2.3,0,4.6-0.1,6.8c0,0.5,0,1,0,1.4c0,1.7-0.1,3.3-0.2,5
				c0,0.8-0.1,1.5-0.1,2.2c-0.1,1.4-0.2,2.7-0.2,4.1c-0.1,0.8-0.1,1.6-0.2,2.4c-0.1,1.3-0.2,2.6-0.3,3.8c-0.1,0.8-0.2,1.7-0.2,2.5
				c-0.1,1.3-0.3,2.5-0.4,3.8c-0.1,0.8-0.2,1.6-0.3,2.3c-0.2,1.3-0.3,2.6-0.5,3.8c-0.1,0.8-0.2,1.5-0.3,2.3
				c-0.2,1.5-0.5,2.9-0.7,4.4c-0.1,0.5-0.2,1-0.3,1.6c-0.2,1.4-0.5,2.8-0.8,4.2c-0.1,0.6-0.2,1.2-0.3,1.8c-0.4,2-0.8,3.9-1.3,5.9
				c-0.5,2-1,4-1.5,6c-0.2,0.6-0.3,1.3-0.5,1.9c-0.4,1.3-0.7,2.7-1.1,4c-0.2,0.6-0.4,1.2-0.6,1.8c-0.4,1.4-0.9,2.8-1.3,4.2
				c-0.2,0.7-0.5,1.5-0.7,2.2c-0.4,1.2-0.9,2.5-1.3,3.7c-0.4,1-0.7,2-1.1,3c-0.1,0.3-0.3,0.7-0.4,1c-0.6,1.5-1.2,3-1.8,4.5
				c-0.1,0.3-0.3,0.6-0.4,0.9c-0.5,1.2-1.1,2.4-1.6,3.6c-0.2,0.4-0.3,0.7-0.5,1.1c-0.5,1-1,2-1.5,3c-0.3,0.5-0.5,1.1-0.8,1.6
				c-0.6,1.2-1.2,2.4-1.9,3.5c-0.2,0.3-0.3,0.6-0.5,0.9c-0.8,1.4-1.6,2.9-2.5,4.3c-0.2,0.4-0.5,0.8-0.7,1.2c-0.6,1-1.2,2-1.9,3
				c-0.2,0.3-0.4,0.7-0.7,1c-0.6,1-1.3,1.9-1.9,2.8c-0.3,0.4-0.6,0.8-0.8,1.2c-0.7,1-1.4,1.9-2.1,2.8c-0.2,0.3-0.4,0.6-0.6,0.8
				c-0.9,1.2-1.8,2.3-2.7,3.5c-0.2,0.3-0.4,0.5-0.7,0.8c-0.7,0.9-1.5,1.7-2.2,2.6c-0.3,0.4-0.6,0.7-0.9,1c-0.7,0.8-1.5,1.6-2.2,2.4
				c-0.3,0.3-0.5,0.6-0.8,0.8c-1,1-2,2.1-3,3.1c-0.2,0.2-0.4,0.4-0.6,0.6c-0.8,0.8-1.7,1.6-2.6,2.4c-0.3,0.3-0.7,0.6-1,0.9
				c-0.8,0.7-1.6,1.4-2.4,2c-0.3,0.3-0.6,0.5-0.9,0.8c-1.1,0.9-2.2,1.8-3.3,2.6c-0.1,0.1-0.3,0.2-0.4,0.3c-1,0.7-2,1.5-3,2.2
				c-0.4,0.3-0.7,0.5-1.1,0.7c-0.8,0.6-1.7,1.1-2.6,1.7c-0.4,0.2-0.7,0.5-1.1,0.7c-1.2,0.8-2.4,1.5-3.6,2.2l21.1-12.3
				c1.2-0.7,2.4-1.4,3.6-2.2c0.4-0.2,0.7-0.5,1.1-0.7c0.9-0.6,1.7-1.1,2.6-1.7c0.4-0.2,0.7-0.5,1.1-0.7c1-0.7,2-1.4,3-2.2
				c0.1-0.1,0.3-0.2,0.4-0.3c1.1-0.9,2.2-1.7,3.3-2.6c0.3-0.3,0.6-0.5,0.9-0.8c0.8-0.7,1.6-1.4,2.4-2c0.3-0.3,0.7-0.6,1-0.9
				c0.9-0.8,1.7-1.6,2.6-2.4c0.2-0.2,0.4-0.4,0.6-0.6c1-1,2-2,3-3.1c0.3-0.3,0.5-0.6,0.8-0.8c0.7-0.8,1.5-1.6,2.2-2.4
				c0.3-0.3,0.6-0.7,0.9-1c0.7-0.9,1.5-1.7,2.2-2.6c0.2-0.3,0.4-0.5,0.7-0.8c0.9-1.1,1.8-2.3,2.7-3.5c0.2-0.3,0.4-0.6,0.6-0.8
				c0.7-0.9,1.4-1.9,2.1-2.8c0.3-0.4,0.6-0.8,0.8-1.2c0.6-0.9,1.3-1.9,1.9-2.8c0.2-0.3,0.4-0.7,0.7-1c0.1-0.1,0.2-0.3,0.3-0.4
				c0.5-0.9,1.1-1.7,1.6-2.6c0.2-0.4,0.5-0.8,0.7-1.2c0.8-1.4,1.7-2.8,2.5-4.3c0.2-0.3,0.3-0.6,0.5-0.9c0.6-1.2,1.3-2.3,1.9-3.5
				c0.3-0.5,0.5-1.1,0.8-1.6c0.4-0.8,0.8-1.5,1.2-2.3c0.1-0.2,0.2-0.5,0.3-0.7c0.2-0.4,0.3-0.7,0.5-1.1c0.6-1.2,1.1-2.4,1.6-3.6
				c0.1-0.3,0.3-0.6,0.4-0.9c0.6-1.5,1.2-3,1.8-4.5c0.1-0.3,0.3-0.7,0.4-1c0.2-0.6,0.5-1.3,0.7-1.9c0.1-0.4,0.3-0.7,0.4-1.1
				c0.4-1.2,0.9-2.5,1.3-3.7c0.2-0.7,0.5-1.5,0.7-2.2c0.5-1.4,0.9-2.8,1.3-4.2c0.1-0.5,0.3-1,0.5-1.5c0-0.1,0.1-0.3,0.1-0.4
				c0.4-1.3,0.7-2.6,1.1-4c0.2-0.6,0.4-1.3,0.5-1.9c0.5-2,1-4,1.5-6c0,0,0,0,0,0c0.4-1.9,0.9-3.9,1.3-5.8c0.1-0.6,0.2-1.2,0.3-1.8
				c0.3-1.3,0.5-2.7,0.8-4.1c0,0,0-0.1,0-0.1c0.1-0.5,0.2-1,0.3-1.6c0.2-1.5,0.5-2.9,0.7-4.4c0.1-0.8,0.2-1.5,0.3-2.3
				c0.1-1,0.3-2.1,0.4-3.1c0-0.2,0.1-0.5,0.1-0.7c0.1-0.8,0.2-1.6,0.3-2.3c0.1-1.3,0.3-2.5,0.4-3.8c0.1-0.8,0.2-1.7,0.2-2.5
				c0.1-0.7,0.1-1.4,0.2-2.1c0-0.6,0.1-1.2,0.1-1.7c0.1-0.8,0.1-1.6,0.2-2.4c0.1-1.4,0.2-2.7,0.2-4.1c0-0.7,0.1-1.5,0.1-2.2
				c0-0.3,0-0.6,0-0.9c0.1-1.3,0.1-2.7,0.1-4.1c0-0.5,0-0.9,0-1.4C592.2,483.2,592.2,481.2,592.2,479.2z"/>
		</g>
	</g>
	<g>
		<g class="st0">
			<g>
				<polygon class="st1" points="222.8,315.5 244,303.2 244.2,303.8 223,316 				"/>
			</g>
			<g>
				<polygon class="st2" points="329.6,377.5 350.7,365.3 350.6,398.6 329.5,410.9 				"/>
			</g>
			<g>
				<polygon class="st3" points="223,316 244.2,303.8 350.7,365.3 329.6,377.5 				"/>
			</g>
			<g>
				<polygon class="st4" points="223.3,164.7 244.4,152.4 244,303.2 222.8,315.5 				"/>
			</g>
			<g class="st0">
				<defs>
					<path id="SVGID_3_" class="st0" d="M194.2,95.3L215.4,83c-35.9,20.9-58.2,65.2-58.4,128.3c-0.2,83.8,38.6,179.7,96.9,253.5
						l-21.1,12.3c-58.3-73.8-97.1-169.7-96.9-253.5C136.1,160.5,158.3,116.2,194.2,95.3z"/>
				</defs>
				<clipPath id="SVGID_4_">
					<use xlink:href="#SVGID_3_"  style="overflow:visible;"/>
				</clipPath>
				<path class="st23" d="M253.6,464.4c-2.8-3.6-5.6-7.2-8.3-10.9c-4.2-5.6-8.2-11.4-12.1-17.2c-5.8-8.6-11.3-17.4-16.6-26.4
					c-3.4-5.7-6.6-11.6-9.7-17.4c-2-3.8-4-7.7-5.9-11.5c-1.7-3.3-3.3-6.7-4.9-10c-1.5-3.2-3-6.4-4.4-9.7c-1.4-3.2-2.8-6.3-4.1-9.5
					c-1.3-3.2-2.6-6.4-3.9-9.6c-1.3-3.3-2.5-6.6-3.7-9.9c-1.2-3.4-2.4-6.8-3.5-10.1c-1.2-3.5-2.3-6.9-3.3-10.4
					c-1.1-3.5-2.1-7-3.1-10.6c-1-3.5-1.9-7.1-2.8-10.6c-0.9-3.5-1.7-7-2.5-10.5c-0.8-3.5-1.5-6.9-2.1-10.4
					c-0.6-3.4-1.2-6.8-1.8-10.2c-0.5-3.3-1-6.7-1.4-10c-0.4-3.3-0.8-6.5-1.1-9.8c-0.3-3.3-0.6-6.5-0.8-9.7c-0.2-3.2-0.4-6.5-0.5-9.7
					c-0.1-3-0.1-6-0.1-9c0-0.2,0-0.4,0-0.6c0-3.3,0.1-6.5,0.2-9.7c0.1-3.2,0.3-6.4,0.6-9.4c0.3-3.3,0.6-6.5,1-9.6
					c0.4-3.3,0.9-6.5,1.4-9.6c0.6-3.3,1.2-6.6,2-9.7c0.8-3.5,1.7-6.9,2.7-10.2c1.1-3.6,2.2-7.2,3.5-10.6c1.5-4,3.1-7.8,4.8-11.5
					c2.3-4.8,4.8-9.4,7.6-13.7c9.2-14.5,20.9-25.8,34.6-33.7l-21.1,12.3c-13.6,7.9-25.3,19.3-34.6,33.7c-2.7,4.3-5.3,8.9-7.6,13.7
					c-1.7,3.7-3.4,7.5-4.8,11.5c-1.3,3.4-2.4,7-3.5,10.6c-1,3.3-1.9,6.7-2.7,10.2c-0.7,3.2-1.4,6.4-2,9.7c-0.5,3.1-1,6.3-1.4,9.6
					c-0.4,3.1-0.7,6.3-1,9.6c-0.3,3.1-0.4,6.2-0.6,9.4c-0.1,3.2-0.2,6.4-0.2,9.7c0,0.2,0,0.4,0,0.6c0,3,0,6,0.1,9
					c0.1,3.2,0.2,6.4,0.5,9.7c0.2,3.2,0.5,6.5,0.8,9.7c0.3,3.3,0.7,6.5,1.1,9.8c0.4,3.3,0.9,6.7,1.4,10c0.5,3.4,1.1,6.8,1.8,10.2
					c0.6,3.4,1.3,6.9,2.1,10.4c0.8,3.5,1.6,7,2.5,10.5c0.9,3.5,1.8,7.1,2.8,10.6c1,3.5,2,7,3.1,10.6c1.1,3.5,2.2,6.9,3.3,10.4
					c1.1,3.4,2.3,6.8,3.5,10.1c1.2,3.3,2.4,6.6,3.7,9.9c1.2,3.2,2.5,6.4,3.9,9.6c1.3,3.2,2.7,6.4,4.1,9.5c1.4,3.2,2.9,6.5,4.4,9.7
					c1.6,3.4,3.2,6.7,4.9,10c1.9,3.9,3.9,7.7,5.9,11.5c3.1,5.9,6.4,11.7,9.7,17.4c5.2,9,10.8,17.8,16.6,26.4
					c3.9,5.8,8,11.6,12.1,17.2c2.7,3.7,5.5,7.3,8.3,10.9c0.1,0.1,0.2,0.3,0.3,0.4l21.1-12.3C253.8,464.7,253.7,464.6,253.6,464.4z"
					/>
			</g>
			<path class="st6" d="M290.4,371.8c1,0.7,2.1,1.4,3.1,2c0.1,0.1,0.3,0.2,0.4,0.3c0.9,0.6,1.8,1.3,2.7,1.9c0.3,0.2,0.5,0.4,0.8,0.6
				c1,0.8,2,1.5,3,2.3c0.1,0.1,0.2,0.1,0.3,0.2c0.9,0.7,1.9,1.5,2.8,2.3c0.2,0.2,0.4,0.3,0.6,0.5c1,0.8,1.9,1.6,2.8,2.4
				c0.4,0.3,0.8,0.7,1.1,1c0.2,0.1,0.3,0.3,0.5,0.4c0.6,0.5,1.1,1.1,1.7,1.6c0.1,0.1,0.2,0.2,0.3,0.3c0.4,0.4,0.9,0.9,1.3,1.3
				c0.2,0.2,0.4,0.4,0.5,0.5c0.3,0.3,0.7,0.7,1,1c0.2,0.2,0.4,0.4,0.6,0.6c0.3,0.3,0.6,0.7,0.9,1c0.2,0.2,0.4,0.4,0.5,0.6
				c0.3,0.3,0.6,0.7,0.9,1c0.2,0.2,0.3,0.4,0.5,0.5c0.3,0.4,0.7,0.8,1,1.1c0.1,0.1,0.2,0.2,0.3,0.3c0.4,0.5,0.9,1,1.3,1.5
				c0.1,0.1,0.2,0.2,0.3,0.3c0.3,0.4,0.6,0.7,0.9,1.1c0.2,0.2,0.4,0.4,0.5,0.6c0.2,0.3,0.4,0.5,0.6,0.8c0.2,0.2,0.3,0.4,0.5,0.6
				c0.2,0.2,0.4,0.5,0.6,0.7c0.3,0.4,0.5,0.7,0.8,1c0.1,0.1,0.2,0.2,0.3,0.4c0.3,0.5,0.7,0.9,1,1.3c0.3,0.4,0.5,0.7,0.8,1.1
				c0.1,0.1,0.1,0.1,0.2,0.2c0.2,0.3,0.4,0.5,0.6,0.8c0.1,0.1,0.2,0.2,0.2,0.3c0.1,0.2,0.3,0.4,0.4,0.6c0.1,0.1,0.2,0.2,0.2,0.3
				c0.1,0.2,0.2,0.4,0.4,0.5c0.1,0.1,0.1,0.2,0.2,0.3c0.1,0.2,0.2,0.4,0.3,0.5c0,0.1,0.1,0.1,0.1,0.2c0.1,0.2,0.3,0.4,0.4,0.6
				c0,0,0,0.1,0.1,0.1c0.1,0.2,0.2,0.3,0.3,0.4c0,0.1,0.1,0.1,0.1,0.1c0.1,0.1,0.1,0.2,0.2,0.3c0,0,0.1,0.1,0.1,0.1
				c0,0.1,0.1,0.1,0.1,0.2c0,0,0,0.1,0.1,0.1c0,0.1,0.1,0.1,0.1,0.2l21.1-12.3c0,0-0.1-0.1-0.1-0.2c0,0,0-0.1-0.1-0.1
				c0-0.1-0.1-0.1-0.1-0.2c0,0-0.1-0.1-0.1-0.1c-0.1-0.1-0.1-0.2-0.2-0.3c0,0-0.1-0.1-0.1-0.1c-0.1-0.1-0.2-0.3-0.3-0.4
				c0,0,0-0.1-0.1-0.1c-0.1-0.2-0.3-0.4-0.4-0.6c0-0.1-0.1-0.1-0.1-0.2c-0.1-0.2-0.2-0.3-0.3-0.5c-0.1-0.1-0.1-0.2-0.2-0.3
				c-0.1-0.1-0.1-0.2-0.2-0.2c-0.1-0.1-0.1-0.2-0.2-0.3c-0.1-0.1-0.2-0.2-0.2-0.3c-0.1-0.2-0.3-0.4-0.4-0.6
				c-0.1-0.1-0.2-0.2-0.2-0.3c-0.2-0.3-0.4-0.5-0.6-0.8c0-0.1-0.1-0.1-0.1-0.2c-0.2-0.3-0.5-0.7-0.8-1c0,0,0,0,0,0
				c-0.3-0.4-0.6-0.9-1-1.3c-0.1-0.1-0.2-0.2-0.3-0.4c-0.3-0.3-0.5-0.7-0.8-1c0,0-0.1-0.1-0.1-0.1c-0.1-0.2-0.3-0.4-0.5-0.6
				c-0.2-0.2-0.3-0.4-0.5-0.6c-0.2-0.2-0.4-0.5-0.6-0.8c-0.2-0.2-0.3-0.4-0.5-0.6c0,0-0.1-0.1-0.1-0.1c-0.3-0.3-0.5-0.6-0.8-1
				c-0.1-0.1-0.2-0.2-0.3-0.3c-0.4-0.5-0.8-0.9-1.2-1.4c0,0,0,0,0-0.1c-0.1-0.1-0.2-0.2-0.3-0.3c-0.3-0.4-0.7-0.8-1-1.1
				c-0.2-0.2-0.3-0.4-0.5-0.5c-0.2-0.2-0.4-0.4-0.6-0.7c-0.1-0.1-0.2-0.2-0.3-0.3c-0.2-0.2-0.4-0.4-0.5-0.6c-0.3-0.3-0.6-0.6-0.9-1
				c-0.2-0.2-0.4-0.4-0.6-0.6c-0.1-0.1-0.2-0.2-0.3-0.3c-0.2-0.2-0.5-0.5-0.7-0.7c-0.2-0.2-0.4-0.4-0.5-0.5
				c-0.4-0.4-0.9-0.9-1.3-1.3c-0.1-0.1-0.2-0.2-0.3-0.3c0,0,0,0,0,0c-0.5-0.5-1.1-1-1.6-1.5c-0.2-0.1-0.3-0.3-0.5-0.4
				c-0.3-0.3-0.6-0.6-1-0.9c-0.1-0.1-0.1-0.1-0.2-0.2c-0.9-0.8-1.8-1.6-2.8-2.4c-0.1-0.1-0.2-0.1-0.2-0.2c-0.1-0.1-0.2-0.2-0.4-0.3
				c-0.9-0.8-1.8-1.5-2.8-2.2c-0.1-0.1-0.1-0.1-0.2-0.2c0,0,0,0-0.1,0c-1-0.8-2-1.5-3-2.3c-0.1-0.1-0.2-0.2-0.3-0.3
				c-0.1-0.1-0.3-0.2-0.4-0.3c-0.9-0.6-1.8-1.3-2.7-1.9c-0.1-0.1-0.2-0.2-0.3-0.2c0,0-0.1,0-0.1-0.1c-1-0.7-2-1.4-3.1-2
				c-0.1-0.1-0.2-0.1-0.3-0.2c-0.2-0.1-0.4-0.2-0.5-0.3c-0.8-0.5-1.6-1-2.5-1.5c-0.2-0.1-0.4-0.2-0.6-0.3c-0.3-0.2-0.6-0.3-0.8-0.5
				c-0.9-0.5-1.8-1-2.6-1.5c-1.1-0.6-2.3-1.2-3.4-1.7c-1.1-0.6-2.2-1.1-3.3-1.6c-1.1-0.5-2.2-1-3.3-1.4c-1.1-0.5-2.2-0.9-3.3-1.2
				c-1.1-0.4-2.2-0.8-3.3-1.1c-1.2-0.3-2.3-0.7-3.4-0.9c-1.2-0.3-2.3-0.5-3.4-0.8c-1.2-0.2-2.4-0.4-3.5-0.6
				c-1.1-0.2-2.2-0.3-3.2-0.3l0,0c-0.1,0-0.1,0-0.2,0c0,0-0.1,0-0.1,0c-0.1,0-0.2,0-0.4,0c-0.4,0-0.8,0-1.2-0.1c-0.2,0-0.4,0-0.6,0
				c-0.4,0-0.8,0-1.2,0c-0.1,0-0.2,0-0.3,0c0,0-0.1,0-0.1,0c-0.6,0-1.1,0-1.6,0c-0.1,0-0.3,0-0.4,0c-0.4,0-0.9,0.1-1.3,0.1
				c0,0-0.1,0-0.1,0c0,0,0,0-0.1,0c-0.1,0-0.2,0-0.3,0c-0.2,0-0.5,0-0.7,0.1c-0.1,0-0.2,0-0.3,0c-0.2,0-0.4,0-0.6,0.1
				c-0.1,0-0.2,0-0.3,0c-0.2,0-0.3,0.1-0.5,0.1c-0.1,0-0.2,0-0.3,0.1c-0.1,0-0.2,0-0.2,0c-0.1,0-0.1,0-0.2,0c-0.1,0-0.2,0-0.3,0.1
				c-0.1,0-0.2,0.1-0.3,0.1c-0.1,0-0.2,0-0.3,0.1c-0.1,0-0.2,0.1-0.3,0.1c-0.1,0-0.2,0-0.2,0.1c-0.1,0-0.2,0.1-0.2,0.1
				c-0.1,0-0.1,0-0.2,0.1c0,0-0.1,0-0.1,0c0,0,0,0-0.1,0c-0.1,0-0.2,0.1-0.3,0.1c0,0-0.1,0-0.1,0c-0.1,0-0.2,0.1-0.2,0.1
				c0,0,0,0,0,0l0,0l0,0l0,0l-21.1,12.3c0,0,0,0,0,0c0,0,0,0,0,0c0,0,0,0,0,0c0.1,0,0.1-0.1,0.2-0.1c0,0,0.1,0,0.1,0
				c0.1,0,0.2-0.1,0.3-0.1c0.1,0,0.1,0,0.2-0.1c0.1,0,0.1,0,0.2-0.1c0.1,0,0.2-0.1,0.3-0.1c0.1,0,0.2,0,0.2-0.1
				c0.1,0,0.2-0.1,0.3-0.1c0.1,0,0.2,0,0.3-0.1c0.1,0,0.2-0.1,0.3-0.1c0.1,0,0.2,0,0.3-0.1c0.1,0,0.3-0.1,0.4-0.1
				c0.1,0,0.2,0,0.3-0.1c0.2,0,0.3-0.1,0.5-0.1c0.1,0,0.2,0,0.3,0c0.2,0,0.4-0.1,0.6-0.1c0.1,0,0.2,0,0.3,0c0.3,0,0.6-0.1,1-0.1
				c0.5,0,1-0.1,1.5-0.1c0.1,0,0.3,0,0.4,0c0.5,0,1.1,0,1.6,0c0,0,0.1,0,0.1,0c0.5,0,0.9,0,1.4,0c0.2,0,0.3,0,0.5,0
				c0.4,0,0.8,0,1.2,0.1c0.2,0,0.4,0,0.6,0c0.3,0,0.7,0.1,1,0.1c0.2,0,0.4,0,0.6,0.1c0.4,0,0.8,0.1,1.2,0.1c0.2,0,0.3,0,0.5,0.1
				c0.3,0,0.6,0.1,0.9,0.1c0.3,0,0.5,0.1,0.8,0.1c0.3,0.1,0.7,0.1,1,0.2c0.2,0,0.5,0.1,0.7,0.1c0.1,0,0.3,0.1,0.4,0.1
				c0.4,0.1,0.9,0.2,1.3,0.3c0.2,0,0.4,0.1,0.7,0.2c0.4,0.1,0.8,0.2,1.2,0.3c0.2,0.1,0.4,0.1,0.6,0.2c0.4,0.1,0.8,0.2,1.2,0.3
				c0.2,0.1,0.5,0.1,0.7,0.2c0.4,0.1,0.8,0.2,1.2,0.4c0.2,0.1,0.4,0.1,0.6,0.2c0.5,0.1,0.9,0.3,1.4,0.5c0.2,0.1,0.4,0.1,0.5,0.2
				c0.2,0.1,0.3,0.1,0.5,0.2c0.8,0.3,1.7,0.6,2.6,1c0.2,0.1,0.5,0.2,0.7,0.3c1,0.4,1.9,0.8,2.9,1.2c0.2,0.1,0.3,0.2,0.5,0.2
				c0.8,0.4,1.6,0.8,2.5,1.2c0.3,0.1,0.6,0.3,0.8,0.4c0.9,0.4,1.8,0.9,2.7,1.4c0.1,0.1,0.2,0.1,0.3,0.2c0.8,0.5,1.7,0.9,2.5,1.4
				c0,0,0,0,0,0l0,0h0c0.5,0.3,0.9,0.6,1.4,0.8c0.8,0.5,1.7,1,2.5,1.5C289.9,371.4,290.1,371.6,290.4,371.8z"/>
			<g>
				<polygon class="st7" points="243.9,199.7 265.1,187.4 323.1,220.9 301.9,233.2 				"/>
			</g>
			<g>
				<path class="st8" d="M330.8,75.8l-0.1,30.2c-107.8-58.6-194.4-7-194.8,117.7c-0.2,83.8,38.6,179.7,96.9,253.5l6.6-117.9
					c0.4-0.7,18.4-6.5,46.4,9.7c28.5,16.5,43,40.7,43.8,42l0.1-33.3L223,316l0.2-151.3l20.7,35l58,33.5l28.4-21l-1.2,415.1
					c-129.9-78.6-233.8-260.9-233.4-411S200.9,4.4,330.8,75.8z"/>
			</g>
			<g>
				<path class="st9" d="M329.6,377.5l-0.1,33.3c-0.8-1.3-15.2-25.5-43.8-42c-28-16.2-46-10.4-46.6-10.2L223,316L329.6,377.5z"/>
			</g>
			<g>
				<polygon class="st10" points="223.3,164.7 244.4,152.4 265.1,187.4 243.9,199.7 				"/>
			</g>
			<g>
				<polygon class="st4" points="330.4,212.2 351.5,199.9 350.3,615 329.2,627.3 				"/>
			</g>
			<g>
				<polygon class="st4" points="330.8,75.8 351.9,63.5 351.8,93.7 330.7,105.9 				"/>
			</g>
			<path class="st6" d="M174.7,57.7c0.6-0.3,1.2-0.5,1.7-0.8c1-0.4,1.9-0.8,2.9-1.2c0.6-0.3,1.2-0.5,1.8-0.8c1-0.4,1.9-0.8,2.9-1.1
				c0.7-0.2,1.3-0.5,2-0.7c0.6-0.2,1.3-0.4,1.9-0.6c0.8-0.3,1.6-0.5,2.4-0.8c0.6-0.2,1.3-0.4,1.9-0.6c0.8-0.2,1.6-0.5,2.4-0.7
				c0.7-0.2,1.3-0.3,2-0.5c0.8-0.2,1.7-0.4,2.5-0.6c0.7-0.1,1.3-0.3,2-0.4c1.1-0.2,2.2-0.5,3.4-0.7c0.2,0,0.5-0.1,0.7-0.1
				c1.4-0.2,2.8-0.5,4.2-0.7c0.4-0.1,0.7-0.1,1.1-0.1c1.1-0.1,2.3-0.3,3.4-0.4c0.4,0,0.8-0.1,1.2-0.1c1.4-0.1,2.8-0.3,4.2-0.3
				c0.3,0,0.5,0,0.8,0c1.4-0.1,2.7-0.1,4.1-0.2c0.2,0,0.4,0,0.5,0c1.4,0,2.7,0,4.1,0c1.1,0,2.3,0,3.5,0c0.7,0,1.3,0,2,0
				c1.4,0,2.8,0.1,4.2,0.2c0.4,0,0.9,0,1.3,0.1c0.8,0.1,1.7,0.1,2.5,0.2c0.9,0.1,1.8,0.1,2.7,0.2c0.8,0.1,1.7,0.2,2.6,0.3
				c0.9,0.1,1.8,0.2,2.8,0.3c0.7,0.1,1.3,0.2,2,0.3c1.1,0.2,2.2,0.3,3.3,0.5c0.7,0.1,1.5,0.3,2.2,0.4c1,0.2,2.1,0.4,3.1,0.6
				c0.7,0.1,1.3,0.3,2,0.4c1.1,0.2,2.2,0.5,3.3,0.7c0.7,0.2,1.4,0.3,2.2,0.5c1.1,0.3,2.1,0.5,3.2,0.8c0.7,0.2,1.4,0.4,2.1,0.6
				c1.1,0.3,2.1,0.6,3.2,0.9c0.7,0.2,1.4,0.4,2.2,0.6c1.1,0.3,2.2,0.7,3.3,1c0.7,0.2,1.3,0.4,2,0.6c1.2,0.4,2.5,0.8,3.7,1.2
				c0.5,0.2,1.1,0.4,1.6,0.5c1.8,0.6,3.5,1.3,5.3,1.9c0.3,0.1,0.7,0.3,1,0.4c1.5,0.6,2.9,1.1,4.4,1.7c0.6,0.2,1.2,0.5,1.8,0.7
				c1.2,0.5,2.4,1,3.6,1.5c0.7,0.3,1.3,0.6,2,0.9c1.2,0.5,2.4,1.1,3.6,1.6c0.6,0.3,1.2,0.6,1.9,0.9c1.5,0.7,2.9,1.4,4.4,2.1
				c0.4,0.2,0.7,0.4,1.1,0.5c1.8,0.9,3.7,1.8,5.5,2.8c0.5,0.3,1,0.5,1.5,0.8c1.6,0.8,3.2,1.7,4.8,2.6l21.1-12.3
				c-0.6-0.3-1.2-0.7-1.8-1c-1-0.5-2-1.1-3-1.6c-0.5-0.3-1-0.5-1.5-0.8c-1.8-0.9-3.5-1.8-5.3-2.7c-0.1,0-0.1-0.1-0.2-0.1
				c-0.4-0.2-0.7-0.4-1.1-0.5c-1.5-0.7-2.9-1.4-4.4-2.1c-0.6-0.3-1.2-0.6-1.9-0.9c-0.7-0.3-1.4-0.7-2.1-1c-0.5-0.2-1-0.4-1.5-0.6
				c-0.7-0.3-1.3-0.6-2-0.9c-1.2-0.5-2.4-1-3.6-1.5c-0.6-0.2-1.2-0.5-1.8-0.7c-0.2-0.1-0.5-0.2-0.7-0.3c-1.2-0.5-2.5-1-3.7-1.4
				c-0.3-0.1-0.7-0.3-1-0.4c-1.7-0.6-3.3-1.2-4.9-1.8c-0.1,0-0.2-0.1-0.4-0.1c-0.5-0.2-1.1-0.4-1.6-0.5c-1.3-0.4-2.5-0.8-3.7-1.2
				c-0.7-0.2-1.3-0.4-2-0.6c-0.7-0.2-1.4-0.4-2-0.6c-0.4-0.1-0.9-0.2-1.3-0.4c-0.7-0.2-1.4-0.4-2.1-0.6c-1.1-0.3-2.1-0.6-3.2-0.9
				c-0.7-0.2-1.4-0.4-2.1-0.6c-0.3-0.1-0.7-0.2-1-0.3c-0.7-0.2-1.4-0.3-2.2-0.5c-0.7-0.2-1.5-0.3-2.2-0.5c-1.1-0.2-2.2-0.5-3.3-0.7
				c-0.7-0.1-1.3-0.3-2-0.4c-0.1,0-0.3-0.1-0.4-0.1c-0.9-0.2-1.8-0.3-2.7-0.5c-0.7-0.1-1.5-0.3-2.2-0.4c-1.1-0.2-2.2-0.3-3.3-0.5
				c-0.7-0.1-1.3-0.2-2-0.3c-0.1,0-0.1,0-0.2,0c-0.9-0.1-1.7-0.2-2.6-0.3c-0.8-0.1-1.7-0.2-2.5-0.3c-0.9-0.1-1.8-0.2-2.7-0.2
				c-0.8-0.1-1.7-0.2-2.5-0.2c0,0-0.1,0-0.1,0c-0.4,0-0.8,0-1.2-0.1c-1.4-0.1-2.8-0.2-4.2-0.2c-0.7,0-1.3,0-2,0c-1.2,0-2.3,0-3.5,0
				c-0.2,0-0.5,0-0.7,0c-1.1,0-2.3,0-3.4,0.1c-0.2,0-0.4,0-0.5,0c-1.4,0-2.7,0.1-4.1,0.2c-0.3,0-0.5,0-0.8,0
				c-1.2,0.1-2.4,0.2-3.5,0.3c-0.2,0-0.5,0-0.7,0.1c-0.4,0-0.8,0.1-1.2,0.1c-1.1,0.1-2.3,0.3-3.4,0.4c-0.4,0-0.7,0.1-1.1,0.1
				c-1.4,0.2-2.8,0.4-4.2,0.7c-0.2,0-0.5,0.1-0.7,0.1c-0.8,0.1-1.7,0.3-2.5,0.5c-0.3,0.1-0.6,0.1-0.9,0.2c-0.7,0.1-1.3,0.3-2,0.4
				c-0.8,0.2-1.7,0.4-2.5,0.6c-0.7,0.2-1.3,0.3-2,0.5c-0.8,0.2-1.6,0.4-2.4,0.7c-0.7,0.2-1.3,0.4-1.9,0.6c-0.8,0.2-1.6,0.5-2.4,0.8
				c-0.6,0.2-1.3,0.4-1.9,0.6c-0.3,0.1-0.6,0.2-0.8,0.3c-0.4,0.1-0.8,0.3-1.1,0.4c-1,0.4-2,0.7-2.9,1.1c-0.6,0.2-1.2,0.5-1.8,0.8
				c-1,0.4-1.9,0.8-2.9,1.3c-0.6,0.3-1.2,0.5-1.7,0.8c-1,0.5-2,1-3,1.5c-0.5,0.2-1,0.5-1.5,0.7c-1.5,0.8-2.9,1.6-4.4,2.4l-21.1,12.3
				c1.4-0.8,2.9-1.6,4.4-2.4c0.5-0.3,1-0.5,1.5-0.7C172.6,58.7,173.6,58.2,174.7,57.7z"/>
		</g>
		<g class="st0">
			<g>
				<polygon class="st11" points="337.2,381.9 358.3,369.6 358.2,403 337.1,415.3 				"/>
			</g>
			<path class="st12" d="M460.8,585.9c1.2-0.5,2.4-1,3.6-1.6c0.2-0.1,0.4-0.2,0.7-0.3c1.2-0.6,2.4-1.1,3.6-1.7
				c0.2-0.1,0.3-0.2,0.5-0.3c1.2-0.6,2.4-1.3,3.6-2l21.1-12.3c-1.2,0.7-2.4,1.4-3.6,2c-0.2,0.1-0.3,0.2-0.5,0.3
				c-1.2,0.6-2.4,1.2-3.6,1.7c-0.2,0.1-0.4,0.2-0.7,0.3c-1.2,0.5-2.4,1.1-3.6,1.6c-0.2,0.1-0.4,0.2-0.6,0.2c-1.3,0.5-2.6,1-3.9,1.5
				c-0.1,0-0.2,0.1-0.3,0.1c-0.9,0.3-1.8,0.6-2.7,0.9c-0.3,0.1-0.6,0.2-0.9,0.3c-0.8,0.2-1.6,0.5-2.4,0.7c-0.2,0.1-0.5,0.1-0.7,0.2
				c-1,0.3-2.1,0.5-3.1,0.8c-0.2,0.1-0.5,0.1-0.7,0.2c-0.8,0.2-1.7,0.4-2.6,0.5c-0.3,0.1-0.6,0.1-0.9,0.2c-1.3,0.3-2.6,0.5-4,0.7
				c-0.2,0-0.4,0.1-0.7,0.1c-1.4,0.2-2.8,0.4-4.2,0.6l-21.1,12.3c1.4-0.2,2.8-0.3,4.2-0.6c0.2,0,0.4-0.1,0.7-0.1
				c1.3-0.2,2.7-0.4,4-0.7c0.1,0,0.2,0,0.4-0.1c0.2,0,0.3-0.1,0.5-0.1c0.9-0.2,1.7-0.4,2.6-0.5c0.2-0.1,0.5-0.1,0.7-0.2
				c1.1-0.2,2.1-0.5,3.1-0.8c0.2-0.1,0.5-0.1,0.7-0.2c0.8-0.2,1.6-0.5,2.4-0.7c0.3-0.1,0.6-0.2,0.9-0.3c0.9-0.3,1.8-0.6,2.7-0.9
				c0.1,0,0.2-0.1,0.3-0.1c0,0,0,0,0,0c1.3-0.5,2.6-0.9,3.9-1.5C460.4,586,460.6,585.9,460.8,585.9z"/>
			<g>
				<polygon class="st13" points="427.4,467.4 448.6,455.2 454.2,580.5 433.1,592.8 				"/>
			</g>
			<path class="st14" d="M385.5,426.7c1.1,0.7,2.1,1.4,3.1,2.1c0.1,0.1,0.2,0.2,0.3,0.2c1,0.7,2,1.4,2.9,2.1
				c0.3,0.2,0.5,0.4,0.8,0.6c1.1,0.8,2.1,1.6,3.2,2.4c0.2,0.1,0.3,0.2,0.5,0.4c1.1,0.9,2.1,1.7,3.2,2.6c0.1,0.1,0.3,0.2,0.4,0.3
				c0.2,0.2,0.5,0.4,0.7,0.6c0.4,0.4,0.9,0.7,1.3,1.1c0.3,0.2,0.5,0.5,0.8,0.7c0.4,0.3,0.8,0.7,1.1,1c0.3,0.3,0.6,0.5,0.9,0.8
				c0.3,0.3,0.7,0.6,1,0.9c0.3,0.3,0.6,0.5,0.9,0.8c0.3,0.3,0.6,0.6,1,0.9c0.3,0.3,0.6,0.6,0.9,0.9c0.3,0.3,0.6,0.6,0.9,0.9
				c0.3,0.3,0.6,0.6,0.9,0.9c0.3,0.3,0.6,0.6,0.8,0.8c0.3,0.3,0.6,0.6,0.9,0.9c0.3,0.3,0.5,0.5,0.8,0.8c0.3,0.3,0.6,0.6,0.9,0.9
				c0.2,0.3,0.5,0.5,0.7,0.8c0.3,0.3,0.6,0.7,0.9,1c0.2,0.2,0.4,0.5,0.6,0.7c0.3,0.3,0.6,0.7,0.9,1c0.2,0.2,0.4,0.4,0.6,0.6
				c1,1.1,1.9,2.2,2.7,3.2c0.1,0.1,0.2,0.3,0.3,0.4c0.3,0.4,0.7,0.8,1,1.2c0.1,0.2,0.3,0.3,0.4,0.5c0.3,0.4,0.6,0.7,0.9,1.1
				c0.1,0.1,0.2,0.3,0.3,0.4c0.1,0.1,0.2,0.2,0.3,0.4c0.2,0.2,0.4,0.5,0.5,0.7c0.1,0.1,0.2,0.2,0.3,0.4c0.2,0.2,0.3,0.4,0.5,0.6
				c0.1,0.1,0.1,0.2,0.2,0.3c0.2,0.3,0.4,0.6,0.6,0.8c0,0,0.1,0.1,0.1,0.1c0.2,0.2,0.3,0.4,0.5,0.6c0.1,0.1,0.1,0.2,0.2,0.2
				c0.1,0.2,0.2,0.3,0.3,0.4c0,0.1,0.1,0.1,0.1,0.2c0.1,0.2,0.3,0.4,0.4,0.5c0,0,0,0,0,0c0.1,0.1,0.2,0.3,0.3,0.4
				c0,0,0.1,0.1,0.1,0.1c0,0.1,0.1,0.1,0.1,0.2c0,0,0,0.1,0.1,0.1c0,0.1,0.1,0.1,0.1,0.1l21.1-12.3c0,0-0.1-0.1-0.1-0.1c0,0,0,0,0,0
				c0-0.1-0.1-0.1-0.2-0.2c0,0,0-0.1-0.1-0.1c-0.1-0.1-0.2-0.2-0.3-0.4c0,0,0,0,0,0c-0.1-0.2-0.2-0.3-0.4-0.5c0,0-0.1-0.1-0.1-0.1
				c-0.1-0.1-0.2-0.3-0.3-0.5c0-0.1-0.1-0.1-0.1-0.2c-0.2-0.2-0.3-0.4-0.5-0.7c0,0,0,0-0.1-0.1c0,0,0,0,0,0
				c-0.2-0.3-0.4-0.5-0.6-0.8c-0.1-0.1-0.1-0.2-0.2-0.3c-0.2-0.2-0.3-0.4-0.5-0.7c-0.1-0.1-0.2-0.2-0.3-0.4
				c-0.2-0.2-0.4-0.5-0.5-0.7c-0.1-0.1-0.2-0.2-0.3-0.4c0-0.1-0.1-0.1-0.1-0.2c-0.1-0.1-0.1-0.2-0.2-0.3c-0.3-0.4-0.6-0.7-0.9-1.1
				c-0.1-0.2-0.3-0.3-0.4-0.5c-0.3-0.4-0.7-0.8-1-1.2c-0.1-0.1-0.2-0.2-0.2-0.3c0,0-0.1-0.1-0.1-0.1c-0.8-1-1.8-2.1-2.7-3.2
				c0,0-0.1-0.1-0.1-0.1c-0.1-0.2-0.3-0.3-0.4-0.5c-0.3-0.3-0.6-0.7-0.9-1c-0.2-0.2-0.4-0.5-0.6-0.7c-0.3-0.3-0.6-0.7-0.9-1
				c-0.1-0.1-0.2-0.2-0.2-0.3c-0.2-0.2-0.3-0.3-0.5-0.5c-0.3-0.3-0.6-0.6-0.9-0.9c-0.3-0.3-0.5-0.5-0.8-0.8
				c-0.3-0.3-0.6-0.6-0.9-0.9c-0.1-0.1-0.2-0.2-0.3-0.3c-0.2-0.2-0.3-0.3-0.5-0.5c-0.3-0.3-0.6-0.6-0.9-0.9
				c-0.3-0.3-0.6-0.6-0.9-0.9c-0.3-0.3-0.6-0.6-0.9-0.9c-0.1-0.1-0.2-0.2-0.4-0.4c-0.2-0.2-0.4-0.4-0.6-0.6
				c-0.3-0.3-0.6-0.5-0.9-0.8c-0.3-0.3-0.7-0.6-1-0.9c-0.3-0.3-0.6-0.5-0.9-0.8c-0.1-0.1-0.2-0.2-0.3-0.3c-0.3-0.2-0.5-0.5-0.8-0.7
				c-0.3-0.2-0.5-0.5-0.8-0.7c-0.4-0.4-0.8-0.7-1.3-1.1c-0.2-0.2-0.5-0.4-0.7-0.6c0,0-0.1-0.1-0.1-0.1c-0.1-0.1-0.2-0.1-0.2-0.2
				c-1-0.9-2.1-1.7-3.2-2.6c-0.1-0.1-0.2-0.2-0.3-0.3c0,0-0.1-0.1-0.1-0.1c-1-0.8-2.1-1.6-3.2-2.4c-0.1-0.1-0.2-0.2-0.3-0.3
				c-0.1-0.1-0.3-0.2-0.4-0.3c-1-0.7-1.9-1.4-2.9-2.1c-0.1-0.1-0.2-0.1-0.3-0.2c0,0,0,0-0.1,0c-1-0.7-2.1-1.4-3.1-2.1
				c-0.1-0.1-0.2-0.1-0.3-0.2c-0.2-0.1-0.4-0.2-0.5-0.3c-0.8-0.5-1.5-1-2.3-1.4c-0.2-0.1-0.4-0.2-0.6-0.4c-0.3-0.2-0.5-0.3-0.8-0.5
				c-0.9-0.5-1.8-1-2.7-1.5c0,0,0,0,0,0c-0.7-0.4-1.5-0.8-2.2-1.2c-0.2-0.1-0.4-0.2-0.6-0.3c-0.2-0.1-0.4-0.2-0.6-0.3
				c-0.4-0.2-0.9-0.4-1.3-0.6c-0.1,0-0.2-0.1-0.2-0.1c-0.6-0.3-1.1-0.5-1.7-0.8c-0.1,0-0.2-0.1-0.3-0.1c-1-0.4-1.9-0.8-2.8-1.2
				c0,0-0.1,0-0.1,0c-0.1,0-0.2-0.1-0.3-0.1c-0.8-0.3-1.6-0.6-2.4-0.9c-0.1,0-0.3-0.1-0.4-0.1c-0.1,0-0.3-0.1-0.4-0.1
				c-0.8-0.3-1.6-0.5-2.3-0.8c-0.1,0-0.2-0.1-0.3-0.1c0,0-0.1,0-0.1,0c-0.9-0.3-1.8-0.5-2.6-0.7c-0.1,0-0.2-0.1-0.3-0.1
				c-0.1,0-0.2,0-0.3-0.1c-0.9-0.2-1.7-0.4-2.6-0.6c0,0,0,0,0,0c0,0,0,0,0,0c0,0-0.1,0-0.1,0c-0.5-0.1-1-0.2-1.5-0.3
				c-0.2,0-0.3-0.1-0.5-0.1c-0.3,0-0.5-0.1-0.8-0.1c-0.1,0-0.2,0-0.3,0c-0.2,0-0.5-0.1-0.7-0.1c-0.3,0-0.6-0.1-0.8-0.1
				c-0.2,0-0.4,0-0.7-0.1c-0.1,0-0.3,0-0.5,0c-0.1,0-0.2,0-0.3,0c-0.3,0-0.5,0-0.8,0c-0.2,0-0.4,0-0.7,0c-0.3,0-0.5,0-0.8,0
				c-0.1,0-0.3,0-0.4,0c-0.1,0-0.1,0-0.2,0c-0.4,0-0.8,0-1.1,0c-0.1,0-0.2,0-0.3,0c-0.5,0-0.9,0.1-1.3,0.1c0,0,0,0-0.1,0
				c-0.1,0-0.1,0-0.2,0c-0.4,0-0.9,0.1-1.3,0.1c-0.1,0-0.2,0-0.3,0c-0.4,0.1-0.9,0.1-1.2,0.2c0,0,0,0-0.1,0c-0.1,0-0.2,0-0.3,0.1
				c-0.2,0-0.4,0.1-0.5,0.1c-0.1,0-0.2,0.1-0.3,0.1c-0.2,0-0.3,0.1-0.4,0.1c-0.1,0-0.2,0.1-0.3,0.1c-0.1,0-0.3,0.1-0.4,0.1
				c-0.1,0-0.2,0.1-0.3,0.1c-0.1,0-0.2,0.1-0.3,0.1c0,0-0.1,0-0.1,0c0,0,0,0-0.1,0c-0.2,0.1-0.4,0.1-0.5,0.2c0,0,0,0,0,0
				c-0.2,0.1-0.3,0.1-0.4,0.2c0,0-0.1,0-0.1,0c-0.1,0-0.2,0.1-0.2,0.1c0,0,0,0-0.1,0c-0.1,0-0.1,0.1-0.1,0.1l-21.1,12.3
				c0,0,0.1,0,0.1-0.1c0,0,0,0,0.1,0c0.1,0,0.1-0.1,0.2-0.1c0,0,0.1,0,0.1,0c0.1-0.1,0.3-0.1,0.4-0.2c0,0,0,0,0,0
				c0.1-0.1,0.3-0.1,0.5-0.2c0.1,0,0.1,0,0.2-0.1c0.1,0,0.2-0.1,0.3-0.1c0.1,0,0.2-0.1,0.3-0.1c0.1,0,0.3-0.1,0.4-0.1
				c0.1,0,0.2-0.1,0.3-0.1c0.1,0,0.3-0.1,0.4-0.1c0.1,0,0.2-0.1,0.3-0.1c0.2,0,0.3-0.1,0.5-0.1c0.1,0,0.2,0,0.3-0.1
				c0.4-0.1,0.8-0.1,1.2-0.2c0.1,0,0.2,0,0.3,0c0.4-0.1,0.8-0.1,1.3-0.1c0.1,0,0.2,0,0.2,0c0.4,0,0.9-0.1,1.3-0.1c0.1,0,0.2,0,0.3,0
				c0.4,0,0.7,0,1.1,0c0.2,0,0.4,0,0.6,0c0.3,0,0.5,0,0.8,0c0.2,0,0.4,0,0.7,0c0.3,0,0.5,0,0.8,0c0.2,0,0.5,0,0.8,0.1
				c0.2,0,0.4,0,0.7,0.1c0.3,0,0.6,0.1,0.8,0.1c0.2,0,0.5,0.1,0.7,0.1c0.3,0,0.7,0.1,1,0.1c0.2,0,0.3,0,0.5,0.1
				c0.5,0.1,1,0.2,1.5,0.3c0,0,0.1,0,0.1,0c0,0,0,0,0,0c0.8,0.2,1.7,0.4,2.6,0.6c0.2,0,0.4,0.1,0.6,0.1c0.8,0.2,1.7,0.5,2.6,0.7
				c0.1,0,0.2,0.1,0.4,0.1c0.8,0.2,1.5,0.5,2.3,0.8c0.3,0.1,0.5,0.2,0.8,0.3c0.8,0.3,1.6,0.6,2.4,0.9c0.1,0.1,0.3,0.1,0.4,0.2
				c0.9,0.4,1.9,0.8,2.8,1.2c0.6,0.3,1.3,0.6,2,0.9c0.1,0,0.2,0.1,0.2,0.1c0.7,0.3,1.3,0.6,2,1c0.2,0.1,0.4,0.2,0.6,0.3
				c0.7,0.4,1.5,0.8,2.3,1.2c0.9,0.5,1.8,1,2.7,1.5c0.5,0.3,0.9,0.6,1.4,0.8c0.8,0.5,1.6,0.9,2.3,1.4
				C384.9,426.3,385.2,426.5,385.5,426.7z"/>
			<g>
				<path class="st15" d="M443.7,443.4l-16.3,24c-0.6-0.9-18.5-27.4-46.5-43.5c-28.5-16.5-43.1-9-43.9-8.6l0.1-33.3L443.7,443.4z"/>
			</g>
			<g>
				<polygon class="st16" points="443.7,443.4 464.8,431.2 448.6,455.2 427.4,467.4 				"/>
			</g>
			<g>
				<polygon class="st17" points="337.2,381.9 358.3,369.6 464.8,431.2 443.7,443.4 				"/>
			</g>
			<g>
				<polygon class="st18" points="337.3,216.2 358.4,203.9 386.6,257.6 365.5,269.9 				"/>
			</g>
			<g>
				<polygon class="st19" points="365.5,269.9 386.6,257.6 444.7,291.1 423.5,303.4 				"/>
			</g>
			<g>
				<polygon class="st20" points="423.5,303.4 444.7,291.1 465.5,280 444.3,292.3 				"/>
			</g>
			<g>
				<polygon class="st11" points="444.3,292.3 465.5,280 465,430.9 443.9,443.2 				"/>
			</g>
			<g>
				<path class="st21" d="M337.7,79.8c129.9,78.6,233.8,260.9,233.4,411c-0.4,150.1-105.1,212-235,140.6l1.2-415.1l28.2,53.7
					l58,33.5l20.8-11.1l-0.4,150.8l-106.7-61.2l-0.1,33.3c0.8-0.4,15.3-7.9,43.9,8.6c28,16.2,45.9,42.6,46.5,43.5l5.7,125.3
					c58.5-6.4,97.7-57.2,98-141c0.4-124.6-85.7-276-193.5-341.8L337.7,79.8z"/>
			</g>
			<path class="st22" d="M592.2,479.2c0-0.2,0-0.5,0-0.7c0-2.1,0-4.3-0.1-6.4c0-0.6,0-1.3,0-1.9c0-0.8,0-1.7-0.1-2.5
				c0-0.7-0.1-1.3-0.1-2c0-0.8-0.1-1.6-0.1-2.3c-0.1-1.5-0.1-3.1-0.2-4.6c0-0.7-0.1-1.3-0.1-2c0-0.2,0-0.4,0-0.6
				c-0.1-2-0.3-4-0.4-5.9c0-0.3,0-0.5-0.1-0.8c-0.1-1.6-0.3-3.3-0.4-5c0-0.3-0.1-0.6-0.1-0.9c-0.1-0.7-0.1-1.5-0.2-2.2
				c-0.2-1.5-0.3-3-0.5-4.6c-0.1-0.8-0.2-1.6-0.3-2.4c-0.1-0.6-0.1-1.2-0.2-1.7c-0.1-0.9-0.2-1.8-0.4-2.8c-0.1-0.8-0.2-1.5-0.3-2.3
				c-0.3-1.8-0.5-3.6-0.8-5.5c-0.1-0.4-0.1-0.9-0.2-1.3c0-0.1,0-0.1,0-0.2c-0.3-2.2-0.7-4.4-1.1-6.5c-0.1-0.6-0.2-1.3-0.3-1.9
				c-0.2-1.2-0.4-2.5-0.7-3.7c-0.1-0.4-0.2-0.8-0.2-1.2c-0.2-0.9-0.3-1.7-0.5-2.6c-0.3-1.5-0.6-2.9-0.9-4.4
				c-0.2-0.9-0.4-1.8-0.6-2.7c-0.1-0.6-0.2-1.2-0.4-1.7c-0.2-0.9-0.4-1.8-0.6-2.6c-0.2-0.9-0.4-1.7-0.6-2.6
				c-0.4-1.6-0.8-3.2-1.2-4.8c-0.2-0.7-0.3-1.4-0.5-2.1c0-0.2-0.1-0.3-0.1-0.5c-0.5-2.2-1.1-4.3-1.6-6.5c-0.1-0.3-0.1-0.5-0.2-0.8
				c-0.5-1.8-1-3.7-1.5-5.5c-0.1-0.2-0.1-0.4-0.2-0.6c-0.2-0.8-0.4-1.5-0.7-2.3c-0.4-1.5-0.9-3.1-1.3-4.6c-0.3-0.9-0.5-1.8-0.8-2.6
				c-0.2-0.8-0.5-1.6-0.7-2.4c-0.2-0.6-0.4-1.3-0.6-1.9c-0.3-0.9-0.5-1.8-0.8-2.6c-0.5-1.5-1-3-1.4-4.5c-0.3-0.8-0.5-1.6-0.8-2.5
				c-0.1-0.3-0.2-0.7-0.3-1c-0.5-1.5-1-3-1.5-4.4c-0.2-0.5-0.3-0.9-0.5-1.4c-0.7-2.1-1.5-4.2-2.3-6.3c-0.1-0.2-0.1-0.3-0.2-0.5
				c-0.2-0.6-0.4-1.1-0.6-1.7c-0.6-1.7-1.2-3.4-1.9-5.1c-0.3-0.8-0.6-1.5-0.9-2.3c-0.3-0.8-0.6-1.5-0.9-2.3
				c-0.3-0.8-0.6-1.5-0.9-2.3c-0.3-0.8-0.6-1.5-0.9-2.3c-0.7-1.7-1.4-3.5-2.1-5.2c-0.2-0.5-0.4-1-0.6-1.5c0-0.1-0.1-0.2-0.1-0.4
				c-0.9-2.1-1.8-4.2-2.6-6.2c-0.2-0.6-0.5-1.1-0.7-1.7c-0.5-1.2-1-2.3-1.5-3.5c-0.2-0.5-0.4-1-0.6-1.4c-0.4-0.8-0.7-1.6-1.1-2.4
				c-0.7-1.5-1.3-3-2-4.4c-0.4-0.8-0.7-1.6-1.1-2.3c-0.2-0.4-0.4-0.8-0.6-1.2c-0.5-1.1-1.1-2.2-1.6-3.4c-0.4-0.7-0.7-1.5-1.1-2.2
				c-1-2.1-2-4.2-3.1-6.3c-0.1-0.1-0.1-0.3-0.2-0.4c0,0,0,0,0,0c-0.2-0.4-0.4-0.8-0.6-1.3c-1-2-2-4-3-6c-0.4-0.9-0.9-1.7-1.4-2.6
				c-0.8-1.5-1.6-3.1-2.4-4.6c-0.1-0.1-0.1-0.2-0.2-0.3c-1.1-2-2.2-4-3.3-6.1c-0.3-0.5-0.6-1.1-0.9-1.6c-0.9-1.6-1.8-3.2-2.7-4.8
				c-0.4-0.7-0.8-1.4-1.2-2.1c-0.8-1.5-1.7-3-2.6-4.4c-0.4-0.7-0.8-1.3-1.2-2c-0.2-0.3-0.4-0.6-0.6-0.9c-0.5-0.8-1-1.6-1.5-2.4
				c-0.7-1.2-1.5-2.5-2.2-3.7c-0.7-1.1-1.3-2.2-2-3.2c-0.8-1.2-1.5-2.5-2.3-3.7c-0.7-1.1-1.4-2.2-2-3.2c-0.8-1.2-1.5-2.4-2.3-3.6
				c-0.7-1.1-1.4-2.1-2.1-3.2c-0.8-1.2-1.6-2.4-2.4-3.6c-0.3-0.4-0.5-0.8-0.8-1.2c-0.6-0.9-1.3-1.8-1.9-2.8
				c-0.4-0.6-0.9-1.3-1.3-1.9c-1.4-2-2.8-4-4.2-6c0,0,0,0,0,0c-1.4-2-2.8-4-4.2-6c-0.4-0.6-0.9-1.2-1.4-1.9c-0.7-0.9-1.3-1.8-2-2.7
				c-0.3-0.4-0.5-0.7-0.8-1.1c-0.9-1.3-1.9-2.6-2.9-3.8c-0.7-0.9-1.4-1.9-2.1-2.8c-1-1.3-2-2.6-3-3.9c-0.5-0.7-1.1-1.4-1.6-2.1
				c-0.2-0.2-0.3-0.4-0.5-0.6c-0.7-0.9-1.4-1.8-2.2-2.7c-0.9-1.1-1.8-2.2-2.7-3.3c-0.7-0.9-1.5-1.8-2.2-2.7c-0.7-0.8-1.3-1.6-2-2.4
				c-0.2-0.3-0.5-0.6-0.7-0.9c-0.7-0.8-1.3-1.6-2-2.3c-1-1.1-1.9-2.3-2.9-3.4c-0.7-0.8-1.4-1.6-2-2.4c-0.5-0.6-1-1.2-1.5-1.7
				c-0.5-0.5-0.9-1-1.4-1.5c-0.7-0.8-1.4-1.6-2.1-2.3c-1-1.1-1.9-2.2-2.9-3.2c-0.7-0.8-1.4-1.5-2.1-2.3c-0.3-0.3-0.6-0.7-0.9-1
				c-0.7-0.7-1.4-1.5-2.1-2.2c-0.7-0.8-1.4-1.5-2.1-2.3c-1-1.1-2.1-2.2-3.1-3.3c-0.7-0.7-1.3-1.4-2-2.1c-0.1-0.1-0.3-0.3-0.4-0.4
				c-1-1-2-2-3-3c-0.6-0.6-1.2-1.2-1.8-1.9c-1.5-1.5-3-3-4.5-4.4c-0.3-0.2-0.5-0.5-0.8-0.7c0,0,0,0,0,0c-1.8-1.7-3.6-3.4-5.4-5.1
				c-0.5-0.5-1.1-1-1.6-1.5c-1.2-1.1-2.4-2.2-3.6-3.3c-0.1-0.1-0.2-0.2-0.3-0.2c-0.7-0.6-1.3-1.2-2-1.8c-1.2-1-2.3-2-3.5-3.1
				c-0.8-0.7-1.5-1.3-2.3-2c-0.9-0.8-1.7-1.5-2.6-2.3c-0.2-0.2-0.4-0.3-0.6-0.5c-0.8-0.7-1.6-1.3-2.4-2c-1.1-0.9-2.1-1.8-3.2-2.6
				c-0.8-0.7-1.6-1.3-2.5-2c-0.7-0.6-1.4-1.1-2.1-1.7c-0.4-0.3-0.7-0.6-1.1-0.8c-0.8-0.6-1.5-1.2-2.3-1.8c-1.1-0.8-2.2-1.7-3.3-2.5
				c-0.8-0.6-1.6-1.2-2.3-1.8c-0.5-0.4-1-0.7-1.4-1.1c-0.6-0.5-1.3-0.9-1.9-1.4c-0.8-0.5-1.5-1.1-2.3-1.6c-1.2-0.8-2.3-1.7-3.5-2.5
				c-0.7-0.5-1.4-1-2.1-1.5c-0.2-0.2-0.4-0.3-0.7-0.5c-1.3-0.9-2.5-1.7-3.8-2.5c-0.4-0.2-0.7-0.5-1.1-0.7c-1.8-1.2-3.5-2.3-5.3-3.4
				c-0.1-0.1-0.2-0.1-0.3-0.2c-2.1-1.3-4.3-2.7-6.4-4l-21.1,12.3c2.1,1.3,4.3,2.6,6.4,4c1.9,1.2,3.7,2.4,5.6,3.6
				c0.4,0.2,0.7,0.5,1.1,0.8c1.5,1,3,2,4.4,3c0.7,0.5,1.4,1,2.1,1.5c1.2,0.8,2.3,1.6,3.5,2.5c0.8,0.5,1.5,1.1,2.3,1.6
				c1.1,0.8,2.2,1.6,3.3,2.5c0.8,0.6,1.6,1.2,2.3,1.8c1.1,0.8,2.2,1.7,3.3,2.5c0.8,0.6,1.5,1.2,2.3,1.8c1.1,0.8,2.1,1.7,3.2,2.5
				c0.8,0.7,1.6,1.3,2.5,2c1.1,0.9,2.1,1.7,3.2,2.6c0.8,0.7,1.6,1.3,2.4,2c1.1,0.9,2.2,1.8,3.3,2.8c0.8,0.7,1.5,1.3,2.3,2
				c1.2,1,2.3,2,3.5,3.1c0.7,0.6,1.3,1.2,2,1.8c1.3,1.2,2.6,2.3,3.9,3.5c0.5,0.5,1.1,1,1.6,1.5c1.8,1.7,3.6,3.4,5.4,5.1
				c0.3,0.2,0.5,0.5,0.8,0.7c1.5,1.5,3,2.9,4.5,4.4c0.6,0.6,1.2,1.2,1.8,1.9c1.1,1.1,2.3,2.3,3.4,3.4c0.7,0.7,1.3,1.4,2,2.1
				c1.1,1.1,2.1,2.2,3.1,3.3c0.7,0.7,1.4,1.5,2.1,2.3c1,1.1,2,2.1,3,3.2c0.7,0.8,1.4,1.5,2.1,2.3c1,1.1,2,2.1,2.9,3.2
				c0.7,0.8,1.4,1.6,2.1,2.3c1,1.1,1.9,2.2,2.9,3.3c0.7,0.8,1.4,1.6,2,2.4c1,1.1,1.9,2.3,2.9,3.4c0.7,0.8,1.3,1.5,2,2.3
				c0.9,1.1,1.8,2.2,2.7,3.3c0.7,0.9,1.5,1.8,2.2,2.7c0.9,1.1,1.8,2.2,2.7,3.3c0.7,0.9,1.5,1.8,2.2,2.7c0.7,0.9,1.4,1.8,2.1,2.7
				c1,1.3,2,2.6,3,3.9c0.7,0.9,1.4,1.9,2.1,2.8c1,1.3,1.9,2.5,2.9,3.8c0.9,1.3,1.9,2.5,2.8,3.8c0.5,0.6,0.9,1.2,1.4,1.9
				c1.4,2,2.8,4,4.2,6c0,0,0,0,0,0c1.4,2,2.8,4,4.2,6c0.4,0.6,0.9,1.3,1.3,1.9c0.9,1.3,1.8,2.6,2.7,4c0.8,1.2,1.6,2.4,2.4,3.6
				c0.7,1.1,1.4,2.1,2.1,3.2c0.8,1.2,1.5,2.4,2.3,3.6c0.7,1.1,1.4,2.2,2,3.2c0.8,1.2,1.5,2.4,2.3,3.7c0.7,1.1,1.3,2.2,2,3.2
				c0.8,1.2,1.5,2.5,2.2,3.7c0.7,1.1,1.4,2.3,2,3.4c0.4,0.7,0.8,1.3,1.2,2c0.9,1.5,1.7,3,2.6,4.4c0.4,0.7,0.8,1.4,1.2,2.1
				c0.9,1.6,1.8,3.2,2.7,4.8c0.3,0.5,0.6,1.1,0.9,1.6c1.2,2.1,2.3,4.2,3.4,6.3c0.8,1.5,1.6,3.1,2.4,4.6c0.4,0.9,0.9,1.7,1.3,2.6
				c1,2,2,4,3,6c0.2,0.4,0.4,0.9,0.6,1.3c0.1,0.1,0.1,0.3,0.2,0.4c1,2.1,2.1,4.2,3.1,6.3c0.4,0.7,0.7,1.5,1.1,2.2
				c0.7,1.5,1.4,3,2.2,4.6c0.4,0.8,0.7,1.5,1.1,2.3c0.7,1.5,1.4,3,2,4.4c0.4,0.8,0.7,1.6,1.1,2.4c0.7,1.6,1.4,3.3,2.2,4.9
				c0.2,0.6,0.5,1.1,0.7,1.7c0.9,2.2,1.9,4.4,2.8,6.6c0.2,0.5,0.4,1,0.6,1.5c0.7,1.7,1.4,3.5,2.1,5.2c0.3,0.8,0.6,1.5,0.9,2.3
				c0.6,1.5,1.2,3.1,1.8,4.6c0.3,0.8,0.6,1.5,0.9,2.3c0.6,1.7,1.3,3.4,1.9,5.1c0.2,0.6,0.4,1.1,0.6,1.7c0.8,2.3,1.6,4.5,2.4,6.8
				c0.2,0.5,0.3,0.9,0.5,1.4c0.6,1.8,1.2,3.6,1.8,5.4c0.3,0.8,0.5,1.6,0.8,2.5c0.5,1.5,1,3,1.4,4.5c0.3,0.9,0.6,1.8,0.8,2.6
				c0.5,1.5,0.9,2.9,1.3,4.4c0.3,0.9,0.5,1.8,0.8,2.6c0.5,1.5,0.9,3.1,1.3,4.6c0.2,0.8,0.4,1.5,0.7,2.3c0.6,2,1.1,4.1,1.7,6.1
				c0.1,0.3,0.1,0.5,0.2,0.8c0.6,2.3,1.2,4.6,1.8,6.9c0.2,0.7,0.3,1.4,0.5,2.1c0.4,1.6,0.8,3.2,1.2,4.8c0.2,0.9,0.4,1.7,0.6,2.6
				c0.3,1.5,0.7,2.9,1,4.4c0.2,0.9,0.4,1.8,0.6,2.7c0.3,1.5,0.6,2.9,0.9,4.4c0.2,0.9,0.3,1.7,0.5,2.6c0.3,1.6,0.6,3.3,0.9,4.9
				c0.1,0.6,0.2,1.3,0.3,1.9c0.4,2.3,0.8,4.5,1.1,6.8c0.1,0.4,0.1,0.9,0.2,1.3c0.3,1.8,0.6,3.6,0.8,5.5c0.1,0.8,0.2,1.5,0.3,2.3
				c0.2,1.5,0.4,3,0.6,4.5c0.1,0.8,0.2,1.6,0.3,2.4c0.2,1.5,0.3,3,0.5,4.6c0.1,0.7,0.2,1.5,0.2,2.2c0.2,2,0.4,3.9,0.5,5.9
				c0,0.3,0,0.5,0.1,0.8c0.2,2.2,0.3,4.4,0.5,6.6c0,0.7,0.1,1.3,0.1,2c0.1,1.5,0.2,3.1,0.2,4.6c0,0.8,0.1,1.6,0.1,2.3
				c0.1,1.5,0.1,3,0.1,4.5c0,0.6,0,1.3,0,1.9c0,2.1,0.1,4.3,0.1,6.4c0,2.3,0,4.6-0.1,6.8c0,0.5,0,1,0,1.4c0,1.7-0.1,3.3-0.2,5
				c0,0.8-0.1,1.5-0.1,2.2c-0.1,1.4-0.2,2.7-0.2,4.1c-0.1,0.8-0.1,1.6-0.2,2.4c-0.1,1.3-0.2,2.6-0.3,3.8c-0.1,0.8-0.2,1.7-0.2,2.5
				c-0.1,1.3-0.3,2.5-0.4,3.8c-0.1,0.8-0.2,1.6-0.3,2.3c-0.2,1.3-0.3,2.6-0.5,3.8c-0.1,0.8-0.2,1.5-0.3,2.3
				c-0.2,1.5-0.5,2.9-0.7,4.4c-0.1,0.5-0.2,1-0.3,1.6c-0.2,1.4-0.5,2.8-0.8,4.2c-0.1,0.6-0.2,1.2-0.3,1.8c-0.4,2-0.8,3.9-1.3,5.9
				c-0.5,2-1,4-1.5,6c-0.2,0.6-0.3,1.3-0.5,1.9c-0.4,1.3-0.7,2.7-1.1,4c-0.2,0.6-0.4,1.2-0.6,1.8c-0.4,1.4-0.9,2.8-1.3,4.2
				c-0.2,0.7-0.5,1.5-0.7,2.2c-0.4,1.2-0.9,2.5-1.3,3.7c-0.4,1-0.7,2-1.1,3c-0.1,0.3-0.3,0.7-0.4,1c-0.6,1.5-1.2,3-1.8,4.5
				c-0.1,0.3-0.3,0.6-0.4,0.9c-0.5,1.2-1.1,2.4-1.6,3.6c-0.2,0.4-0.3,0.7-0.5,1.1c-0.5,1-1,2-1.5,3c-0.3,0.5-0.5,1.1-0.8,1.6
				c-0.6,1.2-1.2,2.4-1.9,3.5c-0.2,0.3-0.3,0.6-0.5,0.9c-0.8,1.4-1.6,2.9-2.5,4.3c-0.2,0.4-0.5,0.8-0.7,1.2c-0.6,1-1.2,2-1.9,3
				c-0.2,0.3-0.4,0.7-0.7,1c-0.6,1-1.3,1.9-1.9,2.8c-0.3,0.4-0.6,0.8-0.8,1.2c-0.7,1-1.4,1.9-2.1,2.8c-0.2,0.3-0.4,0.6-0.6,0.8
				c-0.9,1.2-1.8,2.3-2.7,3.5c-0.2,0.3-0.4,0.5-0.7,0.8c-0.7,0.9-1.5,1.7-2.2,2.6c-0.3,0.4-0.6,0.7-0.9,1c-0.7,0.8-1.5,1.6-2.2,2.4
				c-0.3,0.3-0.5,0.6-0.8,0.8c-1,1-2,2.1-3,3.1c-0.2,0.2-0.4,0.4-0.6,0.6c-0.8,0.8-1.7,1.6-2.6,2.4c-0.3,0.3-0.7,0.6-1,0.9
				c-0.8,0.7-1.6,1.4-2.4,2c-0.3,0.3-0.6,0.5-0.9,0.8c-1.1,0.9-2.2,1.8-3.3,2.6c-0.1,0.1-0.3,0.2-0.4,0.3c-1,0.7-2,1.5-3,2.2
				c-0.4,0.3-0.7,0.5-1.1,0.7c-0.8,0.6-1.7,1.1-2.6,1.7c-0.4,0.2-0.7,0.5-1.1,0.7c-1.2,0.8-2.4,1.5-3.6,2.2l21.1-12.3
				c1.2-0.7,2.4-1.4,3.6-2.2c0.4-0.2,0.7-0.5,1.1-0.7c0.9-0.6,1.7-1.1,2.6-1.7c0.4-0.2,0.7-0.5,1.1-0.7c1-0.7,2-1.4,3-2.2
				c0.1-0.1,0.3-0.2,0.4-0.3c1.1-0.9,2.2-1.7,3.3-2.6c0.3-0.3,0.6-0.5,0.9-0.8c0.8-0.7,1.6-1.4,2.4-2c0.3-0.3,0.7-0.6,1-0.9
				c0.9-0.8,1.7-1.6,2.6-2.4c0.2-0.2,0.4-0.4,0.6-0.6c1-1,2-2,3-3.1c0.3-0.3,0.5-0.6,0.8-0.8c0.7-0.8,1.5-1.6,2.2-2.4
				c0.3-0.3,0.6-0.7,0.9-1c0.7-0.9,1.5-1.7,2.2-2.6c0.2-0.3,0.4-0.5,0.7-0.8c0.9-1.1,1.8-2.3,2.7-3.5c0.2-0.3,0.4-0.6,0.6-0.8
				c0.7-0.9,1.4-1.9,2.1-2.8c0.3-0.4,0.6-0.8,0.8-1.2c0.6-0.9,1.3-1.9,1.9-2.8c0.2-0.3,0.4-0.7,0.7-1c0.1-0.1,0.2-0.3,0.3-0.4
				c0.5-0.9,1.1-1.7,1.6-2.6c0.2-0.4,0.5-0.8,0.7-1.2c0.8-1.4,1.7-2.8,2.5-4.3c0.2-0.3,0.3-0.6,0.5-0.9c0.6-1.2,1.3-2.3,1.9-3.5
				c0.3-0.5,0.5-1.1,0.8-1.6c0.4-0.8,0.8-1.5,1.2-2.3c0.1-0.2,0.2-0.5,0.3-0.7c0.2-0.4,0.3-0.7,0.5-1.1c0.6-1.2,1.1-2.4,1.6-3.6
				c0.1-0.3,0.3-0.6,0.4-0.9c0.6-1.5,1.2-3,1.8-4.5c0.1-0.3,0.3-0.7,0.4-1c0.2-0.6,0.5-1.3,0.7-1.9c0.1-0.4,0.3-0.7,0.4-1.1
				c0.4-1.2,0.9-2.5,1.3-3.7c0.2-0.7,0.5-1.5,0.7-2.2c0.5-1.4,0.9-2.8,1.3-4.2c0.1-0.5,0.3-1,0.5-1.5c0-0.1,0.1-0.3,0.1-0.4
				c0.4-1.3,0.7-2.6,1.1-4c0.2-0.6,0.4-1.3,0.5-1.9c0.5-2,1-4,1.5-6c0,0,0,0,0,0c0.4-1.9,0.9-3.9,1.3-5.8c0.1-0.6,0.2-1.2,0.3-1.8
				c0.3-1.3,0.5-2.7,0.8-4.1c0,0,0-0.1,0-0.1c0.1-0.5,0.2-1,0.3-1.6c0.2-1.5,0.5-2.9,0.7-4.4c0.1-0.8,0.2-1.5,0.3-2.3
				c0.1-1,0.3-2.1,0.4-3.1c0-0.2,0.1-0.5,0.1-0.7c0.1-0.8,0.2-1.6,0.3-2.3c0.1-1.3,0.3-2.5,0.4-3.8c0.1-0.8,0.2-1.7,0.2-2.5
				c0.1-0.7,0.1-1.4,0.2-2.1c0-0.6,0.1-1.2,0.1-1.7c0.1-0.8,0.1-1.6,0.2-2.4c0.1-1.4,0.2-2.7,0.2-4.1c0-0.7,0.1-1.5,0.1-2.2
				c0-0.3,0-0.6,0-0.9c0.1-1.3,0.1-2.7,0.1-4.1c0-0.5,0-0.9,0-1.4C592.2,483.2,592.2,481.2,592.2,479.2z"/>
		</g>
	</g>
</g>
</svg>
