<?xml version="1.0" encoding="utf-8"?>
<!-- Generator: Adobe Illustrator 22.1.0, SVG Export Plug-In . SVG Version: 6.00 Build 0)  -->
<svg version="1.1" id="Layer_1" xmlns="http://www.w3.org/2000/svg" xmlns:xlink="http://www.w3.org/1999/xlink" x="0px" y="0px"
	 viewBox="0 0 688 694.8" style="enable-background:new 0 0 688 694.8;" xml:space="preserve">
<style type="text/css">
	.st0{enable-background:new    ;}
	.st1{fill:#262836;}
	.st2{fill:#0F1118;}
	.st3{fill:#FAF6FC;}
	.st4{fill:#DCD8DE;}
</style>
<g id="Layer_2_1_">
</g>
<g id="Layer_1_1_">
	<g class="st0">
		<g>
			<polygon class="st1" points="217.1,320.1 252.3,299.6 252.5,300.1 217.3,320.6 			"/>
		</g>
		<g>
			<path class="st1" d="M279.2,372.8c16.8-9.8,25.4-14.8,35.3-20.5C302.7,359.2,291,366,279.2,372.8
				C279.2,372.8,279.2,372.8,279.2,372.8z"/>
		</g>
		<g>
			<path class="st1" d="M314.5,352.4c28.2,16.3,42.5,40.2,43.2,41.5l-35.2,20.5c-0.8-1.3-15-25.2-43.2-41.5
				C291,366,302.7,359.2,314.5,352.4z"/>
		</g>
		<g>
			<polygon class="st2" points="217.3,320.6 252.5,300.1 357.8,360.9 322.6,381.4 			"/>
		</g>
		<g>
			<polygon class="st1" points="217.5,171 252.8,150.6 252.3,299.6 217.1,320.1 			"/>
		</g>
		<g>
			<polygon class="st1" points="237.9,205.6 273.2,185.1 330.5,218.2 295.3,238.7 			"/>
		</g>
		<g>
			<polygon class="st1" points="323.4,218 358.6,197.5 357.4,607.7 322.2,628.2 			"/>
		</g>
		<g>
			<polygon class="st2" points="322.6,381.4 357.8,360.9 357.7,393.8 322.5,414.3 			"/>
		</g>
		<g>
			<path class="st1" d="M188.9,102.5L224.1,82c-35.5,20.6-57.5,64.5-57.7,126.8c-0.2,82.8,38.1,177.6,95.7,250.5l-35.2,20.5
				c-57.6-72.9-95.9-167.6-95.7-250.5C131.4,166.9,153.4,123.1,188.9,102.5z"/>
		</g>
		<g>
			<path class="st1" d="M323.7,83.2l-0.1,29.8c-106.5-58-192.1-6.9-192.5,116.3c-0.2,82.8,38.1,177.6,95.7,250.5l6.5-116.5
				c0.4-0.7,18.1-6.4,45.9,9.6c28.2,16.3,42.5,40.2,43.2,41.5l0.1-32.9l-105.3-60.8l0.2-149.5l20.4,34.6l57.3,33.1l28.1-20.7
				l-1.2,410.1C193.9,550.5,91.1,370.4,91.6,222.1C92,73.7,195.4,12.6,323.7,83.2z"/>
		</g>
		<g>
			<path class="st1" d="M262.2,346.5c-9.4,5.5-20.2,11.7-28.7,16.7c1.8-1,19.1-5.6,45.7,9.7c5.6-3.3,10.2-5.9,14.2-8.3L262.2,346.5z
				"/>
		</g>
		<g>
			<path class="st2" d="M322.6,381.4l-0.1,32.9c-0.8-1.3-15-25.2-43.2-41.5c-27.7-16-45.4-10.3-46.1-10.1l-15.9-42.2L322.6,381.4z"
				/>
		</g>
		<g>
			<polygon class="st1" points="217.5,171 252.8,150.6 273.2,185.1 237.9,205.6 			"/>
		</g>
		<g>
			<polygon class="st1" points="323.7,83.2 359,62.7 358.9,92.5 323.7,113 			"/>
		</g>
		<g>
			<path class="st1" d="M160.8,69.9L196,49.4c41.9-24.3,99.4-21.7,163,13.3l-35.2,20.5C260.1,48.2,202.6,45.6,160.8,69.9z"/>
		</g>
	</g>
	<g class="st0">
		<g>
			<polygon class="st3" points="330.1,385.7 365.3,365.2 365.2,398.2 330,418.6 			"/>
		</g>
		<g>
			<path class="st3" d="M499.3,560.9l-35.2,20.5c-11.7,6.8-24.9,11.1-39.2,12.6l35.2-20.5C474.4,572,487.6,567.7,499.3,560.9z"/>
		</g>
		<g>
			<polygon class="st3" points="419.3,470.2 454.5,449.7 460.1,573.5 424.9,594 			"/>
		</g>
		<g>
			<path class="st3" d="M330,418.6l35.2-20.5c0.8-0.4,15.1-7.8,43.3,8.5c27.7,16,45.3,42.1,46,43l-35.2,20.5c-0.6-0.9-18.2-27-46-43
				C345.1,410.9,330.7,418.2,330,418.6z"/>
		</g>
		<g>
			<path class="st4" d="M435.3,446.5l-16.1,23.7c-0.6-0.9-18.2-27-46-43c-28.2-16.3-42.6-8.9-43.3-8.5l0.1-32.9L435.3,446.5z"/>
		</g>
		<g>
			<polygon class="st4" points="435.3,446.5 470.6,426 454.5,449.7 419.3,470.2 			"/>
		</g>
		<g>
			<polygon class="st3" points="435.9,297.2 471.2,276.7 470.8,425.7 435.5,446.2 			"/>
		</g>
		<g>
			<polygon class="st4" points="330.1,385.7 365.3,365.2 470.6,426 435.3,446.5 			"/>
		</g>
		<g>
			<polygon class="st3" points="330.2,222 365.4,201.5 393.3,254.5 358.1,275 			"/>
		</g>
		<g>
			<polygon class="st3" points="358.1,275 393.3,254.5 450.6,287.6 415.4,308.1 			"/>
		</g>
		<g>
			<polygon class="st3" points="415.4,308.1 450.6,287.6 471.2,276.7 435.9,297.2 			"/>
		</g>
		<g>
			<path class="st3" d="M527.2,624.9L492,645.4c42.6-24.7,69-77.4,69.2-152.2l35.2-20.5C596.2,547.5,569.8,600.1,527.2,624.9z"/>
		</g>
		<g>
			<path class="st3" d="M330.6,87.1c128.3,77.6,231,257.8,230.6,406.1S457.4,702.7,329,632.1l1.2-410.1l27.9,53l57.3,33.1l20.5-10.9
				l-0.4,149l-105.5-60.5l-0.1,32.9c0.8-0.4,15.1-7.8,43.3,8.5c27.7,16,45.3,42.1,46,43l5.6,123.8c57.8-6.3,96.6-56.5,96.8-139.3
				C522,331.5,437,181.9,330.5,116.9L330.6,87.1z"/>
		</g>
		<g>
			<path class="st3" d="M330.6,87.1l35.2-20.5c128.3,77.6,231,257.8,230.6,406.1l-35.2,20.5C561.6,344.9,458.9,164.7,330.6,87.1z"/>
		</g>
	</g>
</g>
<g id="Layer_1_2_">
	<g class="st0">
		<g>
			<polygon class="st1" points="217.1,320.1 252.3,299.6 252.5,300.1 217.3,320.6 			"/>
		</g>
		<g>
			<path class="st1" d="M279.2,372.8c16.8-9.8,25.4-14.8,35.3-20.5C302.7,359.2,291,366,279.2,372.8
				C279.2,372.8,279.2,372.8,279.2,372.8z"/>
		</g>
		<g>
			<path class="st1" d="M314.5,352.4c28.2,16.3,42.5,40.2,43.2,41.5l-35.2,20.5c-0.8-1.3-15-25.2-43.2-41.5
				C291,366,302.7,359.2,314.5,352.4z"/>
		</g>
		<g>
			<polygon class="st2" points="217.3,320.6 252.5,300.1 357.8,360.9 322.6,381.4 			"/>
		</g>
		<g>
			<polygon class="st1" points="217.5,171 252.8,150.6 252.3,299.6 217.1,320.1 			"/>
		</g>
		<g>
			<polygon class="st1" points="237.9,205.6 273.2,185.1 330.5,218.2 295.3,238.7 			"/>
		</g>
		<g>
			<polygon class="st1" points="323.4,218 358.6,197.5 357.4,607.7 322.2,628.2 			"/>
		</g>
		<g>
			<polygon class="st2" points="322.6,381.4 357.8,360.9 357.7,393.8 322.5,414.3 			"/>
		</g>
		<g>
			<path class="st1" d="M188.9,102.5L224.1,82c-35.5,20.6-57.5,64.5-57.7,126.8c-0.2,82.8,38.1,177.6,95.7,250.5l-35.2,20.5
				c-57.6-72.9-95.9-167.6-95.7-250.5C131.4,166.9,153.4,123.1,188.9,102.5z"/>
		</g>
		<g>
			<path class="st1" d="M323.7,83.2l-0.1,29.8c-106.5-58-192.1-6.9-192.5,116.3c-0.2,82.8,38.1,177.6,95.7,250.5l6.5-116.5
				c0.4-0.7,18.1-6.4,45.9,9.6c28.2,16.3,42.5,40.2,43.2,41.5l0.1-32.9l-105.3-60.8l0.2-149.5l20.4,34.6l57.3,33.1l28.1-20.7
				l-1.2,410.1C193.9,550.5,91.1,370.4,91.6,222.1C92,73.7,195.4,12.6,323.7,83.2z"/>
		</g>
		<g>
			<path class="st1" d="M262.2,346.5c-9.4,5.5-20.2,11.7-28.7,16.7c1.8-1,19.1-5.6,45.7,9.7c5.6-3.3,10.2-5.9,14.2-8.3L262.2,346.5z
				"/>
		</g>
		<g>
			<path class="st2" d="M322.6,381.4l-0.1,32.9c-0.8-1.3-15-25.2-43.2-41.5c-27.7-16-45.4-10.3-46.1-10.1l-15.9-42.2L322.6,381.4z"
				/>
		</g>
		<g>
			<polygon class="st1" points="217.5,171 252.8,150.6 273.2,185.1 237.9,205.6 			"/>
		</g>
		<g>
			<polygon class="st1" points="323.7,83.2 359,62.7 358.9,92.5 323.7,113 			"/>
		</g>
		<g>
			<path class="st1" d="M160.8,69.9L196,49.4c41.9-24.3,99.4-21.7,163,13.3l-35.2,20.5C260.1,48.2,202.6,45.6,160.8,69.9z"/>
		</g>
	</g>
	<g class="st0">
		<g>
			<polygon class="st3" points="330.1,385.7 365.3,365.2 365.2,398.2 330,418.6 			"/>
		</g>
		<g>
			<path class="st3" d="M499.3,560.9l-35.2,20.5c-11.7,6.8-24.9,11.1-39.2,12.6l35.2-20.5C474.4,572,487.6,567.7,499.3,560.9z"/>
		</g>
		<g>
			<polygon class="st3" points="419.3,470.2 454.5,449.7 460.1,573.5 424.9,594 			"/>
		</g>
		<g>
			<path class="st3" d="M330,418.6l35.2-20.5c0.8-0.4,15.1-7.8,43.3,8.5c27.7,16,45.3,42.1,46,43l-35.2,20.5c-0.6-0.9-18.2-27-46-43
				C345.1,410.9,330.7,418.2,330,418.6z"/>
		</g>
		<g>
			<path class="st4" d="M435.3,446.5l-16.1,23.7c-0.6-0.9-18.2-27-46-43c-28.2-16.3-42.6-8.9-43.3-8.5l0.1-32.9L435.3,446.5z"/>
		</g>
		<g>
			<polygon class="st4" points="435.3,446.5 470.6,426 454.5,449.7 419.3,470.2 			"/>
		</g>
		<g>
			<polygon class="st3" points="435.9,297.2 471.2,276.7 470.8,425.7 435.5,446.2 			"/>
		</g>
		<g>
			<polygon class="st4" points="330.1,385.7 365.3,365.2 470.6,426 435.3,446.5 			"/>
		</g>
		<g>
			<polygon class="st3" points="330.2,222 365.4,201.5 393.3,254.5 358.1,275 			"/>
		</g>
		<g>
			<polygon class="st3" points="358.1,275 393.3,254.5 450.6,287.6 415.4,308.1 			"/>
		</g>
		<g>
			<polygon class="st3" points="415.4,308.1 450.6,287.6 471.2,276.7 435.9,297.2 			"/>
		</g>
		<g>
			<path class="st3" d="M527.2,624.9L492,645.4c42.6-24.7,69-77.4,69.2-152.2l35.2-20.5C596.2,547.5,569.8,600.1,527.2,624.9z"/>
		</g>
		<g>
			<path class="st3" d="M330.6,87.1c128.3,77.6,231,257.8,230.6,406.1S457.4,702.7,329,632.1l1.2-410.1l27.9,53l57.3,33.1l20.5-10.9
				l-0.4,149l-105.5-60.5l-0.1,32.9c0.8-0.4,15.1-7.8,43.3,8.5c27.7,16,45.3,42.1,46,43l5.6,123.8c57.8-6.3,96.6-56.5,96.8-139.3
				C522,331.5,437,181.9,330.5,116.9L330.6,87.1z"/>
		</g>
		<g>
			<path class="st3" d="M330.6,87.1l35.2-20.5c128.3,77.6,231,257.8,230.6,406.1l-35.2,20.5C561.6,344.9,458.9,164.7,330.6,87.1z"/>
		</g>
	</g>
</g>
<g id="Layer_1_3_">
	<g class="st0">
		<g>
			<polygon class="st1" points="217.1,320.1 252.3,299.6 252.5,300.1 217.3,320.6 			"/>
		</g>
		<g>
			<path class="st1" d="M279.2,372.8c16.8-9.8,25.4-14.8,35.3-20.5C302.7,359.2,291,366,279.2,372.8
				C279.2,372.8,279.2,372.8,279.2,372.8z"/>
		</g>
		<g>
			<path class="st1" d="M314.5,352.4c28.2,16.3,42.5,40.2,43.2,41.5l-35.2,20.5c-0.8-1.3-15-25.2-43.2-41.5
				C291,366,302.7,359.2,314.5,352.4z"/>
		</g>
		<g>
			<polygon class="st2" points="217.3,320.6 252.5,300.1 357.8,360.9 322.6,381.4 			"/>
		</g>
		<g>
			<polygon class="st1" points="217.5,171 252.8,150.6 252.3,299.6 217.1,320.1 			"/>
		</g>
		<g>
			<polygon class="st1" points="237.9,205.6 273.2,185.1 330.5,218.2 295.3,238.7 			"/>
		</g>
		<g>
			<polygon class="st1" points="323.4,218 358.6,197.5 357.4,607.7 322.2,628.2 			"/>
		</g>
		<g>
			<polygon class="st2" points="322.6,381.4 357.8,360.9 357.7,393.8 322.5,414.3 			"/>
		</g>
		<g>
			<path class="st1" d="M188.9,102.5L224.1,82c-35.5,20.6-57.5,64.5-57.7,126.8c-0.2,82.8,38.1,177.6,95.7,250.5l-35.2,20.5
				c-57.6-72.9-95.9-167.6-95.7-250.5C131.4,166.9,153.4,123.1,188.9,102.5z"/>
		</g>
		<g>
			<path class="st1" d="M323.7,83.2l-0.1,29.8c-106.5-58-192.1-6.9-192.5,116.3c-0.2,82.8,38.1,177.6,95.7,250.5l6.5-116.5
				c0.4-0.7,18.1-6.4,45.9,9.6c28.2,16.3,42.5,40.2,43.2,41.5l0.1-32.9l-105.3-60.8l0.2-149.5l20.4,34.6l57.3,33.1l28.1-20.7
				l-1.2,410.1C193.9,550.5,91.1,370.4,91.6,222.1C92,73.7,195.4,12.6,323.7,83.2z"/>
		</g>
		<g>
			<path class="st1" d="M262.2,346.5c-9.4,5.5-20.2,11.7-28.7,16.7c1.8-1,19.1-5.6,45.7,9.7c5.6-3.3,10.2-5.9,14.2-8.3L262.2,346.5z
				"/>
		</g>
		<g>
			<path class="st2" d="M322.6,381.4l-0.1,32.9c-0.8-1.3-15-25.2-43.2-41.5c-27.7-16-45.4-10.3-46.1-10.1l-15.9-42.2L322.6,381.4z"
				/>
		</g>
		<g>
			<polygon class="st1" points="217.5,171 252.8,150.6 273.2,185.1 237.9,205.6 			"/>
		</g>
		<g>
			<polygon class="st1" points="323.7,83.2 359,62.7 358.9,92.5 323.7,113 			"/>
		</g>
		<g>
			<path class="st1" d="M160.8,69.9L196,49.4c41.9-24.3,99.4-21.7,163,13.3l-35.2,20.5C260.1,48.2,202.6,45.6,160.8,69.9z"/>
		</g>
	</g>
	<g class="st0">
		<g>
			<polygon class="st3" points="330.1,385.7 365.3,365.2 365.2,398.2 330,418.6 			"/>
		</g>
		<g>
			<path class="st3" d="M499.3,560.9l-35.2,20.5c-11.7,6.8-24.9,11.1-39.2,12.6l35.2-20.5C474.4,572,487.6,567.7,499.3,560.9z"/>
		</g>
		<g>
			<polygon class="st3" points="419.3,470.2 454.5,449.7 460.1,573.5 424.9,594 			"/>
		</g>
		<g>
			<path class="st3" d="M330,418.6l35.2-20.5c0.8-0.4,15.1-7.8,43.3,8.5c27.7,16,45.3,42.1,46,43l-35.2,20.5c-0.6-0.9-18.2-27-46-43
				C345.1,410.9,330.7,418.2,330,418.6z"/>
		</g>
		<g>
			<path class="st4" d="M435.3,446.5l-16.1,23.7c-0.6-0.9-18.2-27-46-43c-28.2-16.3-42.6-8.9-43.3-8.5l0.1-32.9L435.3,446.5z"/>
		</g>
		<g>
			<polygon class="st4" points="435.3,446.5 470.6,426 454.5,449.7 419.3,470.2 			"/>
		</g>
		<g>
			<polygon class="st3" points="435.9,297.2 471.2,276.7 470.8,425.7 435.5,446.2 			"/>
		</g>
		<g>
			<polygon class="st4" points="330.1,385.7 365.3,365.2 470.6,426 435.3,446.5 			"/>
		</g>
		<g>
			<polygon class="st3" points="330.2,222 365.4,201.5 393.3,254.5 358.1,275 			"/>
		</g>
		<g>
			<polygon class="st3" points="358.1,275 393.3,254.5 450.6,287.6 415.4,308.1 			"/>
		</g>
		<g>
			<polygon class="st3" points="415.4,308.1 450.6,287.6 471.2,276.7 435.9,297.2 			"/>
		</g>
		<g>
			<path class="st3" d="M527.2,624.9L492,645.4c42.6-24.7,69-77.4,69.2-152.2l35.2-20.5C596.2,547.5,569.8,600.1,527.2,624.9z"/>
		</g>
		<g>
			<path class="st3" d="M330.6,87.1c128.3,77.6,231,257.8,230.6,406.1S457.4,702.7,329,632.1l1.2-410.1l27.9,53l57.3,33.1l20.5-10.9
				l-0.4,149l-105.5-60.5l-0.1,32.9c0.8-0.4,15.1-7.8,43.3,8.5c27.7,16,45.3,42.1,46,43l5.6,123.8c57.8-6.3,96.6-56.5,96.8-139.3
				C522,331.5,437,181.9,330.5,116.9L330.6,87.1z"/>
		</g>
		<g>
			<path class="st3" d="M330.6,87.1l35.2-20.5c128.3,77.6,231,257.8,230.6,406.1l-35.2,20.5C561.6,344.9,458.9,164.7,330.6,87.1z"/>
		</g>
	</g>
</g>
</svg>
